<svg width="575" height="270" viewBox="0 0 575 270" fill="none" xmlns="http://www.w3.org/2000/svg">
<path d="M33.2487 184.286C14.8859 116.584 55.9087 46.536 123.611 28.1732C180.503 12.7426 239.993 46.1199 255.424 103.012L258.252 113.44C272.413 165.649 241.568 219.453 189.359 233.613L141.796 246.514C94.6374 259.305 46.0393 231.444 33.2487 184.286Z" fill="#205E96"/>
<path d="M218.688 148.448H226.048V152H214.208V129.664H218.688V148.448ZM227.743 143.072C227.743 141.28 228.095 139.69 228.799 138.304C229.525 136.917 230.496 135.85 231.712 135.104C232.949 134.357 234.325 133.984 235.84 133.984C237.162 133.984 238.314 134.25 239.296 134.784C240.298 135.317 241.098 135.989 241.696 136.8V134.272H246.208V152H241.696V149.408C241.12 150.24 240.32 150.933 239.296 151.488C238.293 152.021 237.13 152.288 235.808 152.288C234.314 152.288 232.949 151.904 231.712 151.136C230.496 150.368 229.525 149.29 228.799 147.904C228.095 146.496 227.743 144.885 227.743 143.072ZM241.696 143.136C241.696 142.048 241.482 141.12 241.056 140.352C240.629 139.562 240.053 138.965 239.328 138.56C238.602 138.133 237.824 137.92 236.992 137.92C236.16 137.92 235.392 138.122 234.688 138.528C233.984 138.933 233.408 139.53 232.96 140.32C232.533 141.088 232.32 142.005 232.32 143.072C232.32 144.138 232.533 145.077 232.96 145.888C233.408 146.677 233.984 147.285 234.688 147.712C235.413 148.138 236.181 148.352 236.992 148.352C237.824 148.352 238.602 148.149 239.328 147.744C240.053 147.317 240.629 146.72 241.056 145.952C241.482 145.162 241.696 144.224 241.696 143.136ZM257.975 147.872L262.455 134.272H267.223L260.663 152H255.223L248.695 134.272H253.495L257.975 147.872ZM287.188 134.016C289.3 134.016 291.007 134.688 292.308 136.032C293.61 137.354 294.26 139.21 294.26 141.6V152H289.78V142.208C289.78 140.8 289.428 139.722 288.724 138.976C288.02 138.208 287.06 137.824 285.844 137.824C284.607 137.824 283.626 138.208 282.9 138.976C282.196 139.722 281.844 140.8 281.844 142.208V152H277.364V134.272H281.844V136.48C282.442 135.712 283.199 135.114 284.116 134.688C285.055 134.24 286.079 134.016 287.188 134.016ZM315.481 134.272L304.505 160.384H299.737L303.577 151.552L296.473 134.272H301.497L306.073 146.656L310.713 134.272H315.481ZM334.376 142.752C334.376 143.392 334.333 143.968 334.248 144.48H321.288C321.394 145.76 321.842 146.762 322.632 147.488C323.421 148.213 324.392 148.576 325.544 148.576C327.208 148.576 328.392 147.861 329.096 146.432H333.928C333.416 148.138 332.434 149.546 330.984 150.656C329.533 151.744 327.752 152.288 325.64 152.288C323.933 152.288 322.397 151.914 321.032 151.168C319.688 150.4 318.632 149.322 317.864 147.936C317.117 146.549 316.743 144.949 316.743 143.136C316.743 141.301 317.117 139.69 317.864 138.304C318.61 136.917 319.656 135.85 321 135.104C322.344 134.357 323.89 133.984 325.64 133.984C327.325 133.984 328.829 134.346 330.152 135.072C331.496 135.797 332.53 136.832 333.256 138.176C334.002 139.498 334.376 141.024 334.376 142.752ZM329.736 141.472C329.714 140.32 329.298 139.402 328.488 138.72C327.677 138.016 326.685 137.664 325.512 137.664C324.402 137.664 323.464 138.005 322.696 138.688C321.949 139.349 321.49 140.277 321.32 141.472H329.736ZM344.118 143.072C344.118 141.28 344.47 139.69 345.174 138.304C345.9 136.917 346.871 135.85 348.087 135.104C349.324 134.357 350.7 133.984 352.215 133.984C353.537 133.984 354.689 134.25 355.671 134.784C356.673 135.317 357.473 135.989 358.071 136.8V134.272H362.583V152H358.071V149.408C357.495 150.24 356.695 150.933 355.671 151.488C354.668 152.021 353.505 152.288 352.183 152.288C350.689 152.288 349.324 151.904 348.087 151.136C346.871 150.368 345.9 149.29 345.174 147.904C344.47 146.496 344.118 144.885 344.118 143.072ZM358.071 143.136C358.071 142.048 357.857 141.12 357.431 140.352C357.004 139.562 356.428 138.965 355.703 138.56C354.977 138.133 354.199 137.92 353.367 137.92C352.535 137.92 351.767 138.122 351.062 138.528C350.359 138.933 349.783 139.53 349.335 140.32C348.908 141.088 348.695 142.005 348.695 143.072C348.695 144.138 348.908 145.077 349.335 145.888C349.783 146.677 350.359 147.285 351.062 147.712C351.788 148.138 352.556 148.352 353.367 148.352C354.199 148.352 354.977 148.149 355.703 147.744C356.428 147.317 357.004 146.72 357.431 145.952C357.857 145.162 358.071 144.224 358.071 143.136ZM371.438 137.024C372.014 136.085 372.761 135.349 373.678 134.816C374.617 134.282 375.683 134.016 376.878 134.016V138.72H375.694C374.286 138.72 373.219 139.05 372.494 139.712C371.79 140.373 371.438 141.525 371.438 143.168V152H366.958V134.272H371.438V137.024ZM384.376 137.024C384.952 136.085 385.698 135.349 386.616 134.816C387.554 134.282 388.621 134.016 389.816 134.016V138.72H388.632C387.224 138.72 386.157 139.05 385.432 139.712C384.728 140.373 384.376 141.525 384.376 143.168V152H379.896V134.272H384.376V137.024ZM391.681 143.072C391.681 141.28 392.033 139.69 392.737 138.304C393.462 136.917 394.433 135.85 395.649 135.104C396.886 134.357 398.262 133.984 399.777 133.984C401.1 133.984 402.252 134.25 403.233 134.784C404.236 135.317 405.036 135.989 405.633 136.8V134.272H410.145V152H405.633V149.408C405.057 150.24 404.257 150.933 403.233 151.488C402.23 152.021 401.068 152.288 399.745 152.288C398.252 152.288 396.886 151.904 395.649 151.136C394.433 150.368 393.462 149.29 392.737 147.904C392.033 146.496 391.681 144.885 391.681 143.072ZM405.633 143.136C405.633 142.048 405.42 141.12 404.993 140.352C404.566 139.562 403.99 138.965 403.265 138.56C402.54 138.133 401.761 137.92 400.929 137.92C400.097 137.92 399.329 138.122 398.625 138.528C397.921 138.933 397.345 139.53 396.897 140.32C396.47 141.088 396.257 142.005 396.257 143.072C396.257 144.138 396.47 145.077 396.897 145.888C397.345 146.677 397.921 147.285 398.625 147.712C399.35 148.138 400.118 148.352 400.929 148.352C401.761 148.352 402.54 148.149 403.265 147.744C403.99 147.317 404.566 146.72 404.993 145.952C405.42 145.162 405.633 144.224 405.633 143.136ZM424.345 134.016C426.457 134.016 428.163 134.688 429.465 136.032C430.766 137.354 431.417 139.21 431.417 141.6V152H426.937V142.208C426.937 140.8 426.585 139.722 425.881 138.976C425.177 138.208 424.217 137.824 423.001 137.824C421.763 137.824 420.782 138.208 420.057 138.976C419.353 139.722 419.001 140.8 419.001 142.208V152H414.521V134.272H419.001V136.48C419.598 135.712 420.355 135.114 421.273 134.688C422.211 134.24 423.235 134.016 424.345 134.016ZM442.621 133.984C443.943 133.984 445.106 134.25 446.109 134.784C447.111 135.296 447.901 135.968 448.477 136.8V134.272H452.989V152.128C452.989 153.77 452.658 155.232 451.997 156.512C451.335 157.813 450.343 158.837 449.021 159.584C447.698 160.352 446.098 160.736 444.221 160.736C441.703 160.736 439.634 160.149 438.013 158.976C436.413 157.802 435.506 156.202 435.293 154.176H439.741C439.975 154.986 440.477 155.626 441.245 156.096C442.034 156.586 442.983 156.832 444.093 156.832C445.394 156.832 446.45 156.437 447.261 155.648C448.071 154.88 448.477 153.706 448.477 152.128V149.376C447.901 150.208 447.101 150.901 446.077 151.456C445.074 152.01 443.922 152.288 442.621 152.288C441.127 152.288 439.762 151.904 438.525 151.136C437.287 150.368 436.306 149.29 435.581 147.904C434.877 146.496 434.525 144.885 434.525 143.072C434.525 141.28 434.877 139.69 435.581 138.304C436.306 136.917 437.277 135.85 438.493 135.104C439.73 134.357 441.106 133.984 442.621 133.984ZM448.477 143.136C448.477 142.048 448.263 141.12 447.837 140.352C447.41 139.562 446.834 138.965 446.109 138.56C445.383 138.133 444.605 137.92 443.773 137.92C442.941 137.92 442.173 138.122 441.469 138.528C440.765 138.933 440.189 139.53 439.741 140.32C439.314 141.088 439.101 142.005 439.101 143.072C439.101 144.138 439.314 145.077 439.741 145.888C440.189 146.677 440.765 147.285 441.469 147.712C442.194 148.138 442.962 148.352 443.773 148.352C444.605 148.352 445.383 148.149 446.109 147.744C446.834 147.317 447.41 146.72 447.837 145.952C448.263 145.162 448.477 144.224 448.477 143.136ZM479.38 134.016C481.556 134.016 483.306 134.688 484.628 136.032C485.972 137.354 486.644 139.21 486.644 141.6V152H482.164V142.208C482.164 140.821 481.812 139.765 481.108 139.04C480.404 138.293 479.444 137.92 478.228 137.92C477.012 137.92 476.042 138.293 475.316 139.04C474.612 139.765 474.26 140.821 474.26 142.208V152H469.78V142.208C469.78 140.821 469.428 139.765 468.724 139.04C468.02 138.293 467.06 137.92 465.844 137.92C464.607 137.92 463.626 138.293 462.9 139.04C462.196 139.765 461.844 140.821 461.844 142.208V152H457.364V134.272H461.844V136.416C462.42 135.669 463.156 135.082 464.052 134.656C464.97 134.229 465.972 134.016 467.06 134.016C468.447 134.016 469.684 134.314 470.772 134.912C471.86 135.488 472.703 136.32 473.3 137.408C473.876 136.384 474.708 135.562 475.796 134.944C476.906 134.325 478.1 134.016 479.38 134.016ZM507.376 142.752C507.376 143.392 507.333 143.968 507.248 144.48H494.288C494.394 145.76 494.842 146.762 495.632 147.488C496.421 148.213 497.392 148.576 498.544 148.576C500.208 148.576 501.392 147.861 502.096 146.432H506.928C506.416 148.138 505.434 149.546 503.984 150.656C502.533 151.744 500.752 152.288 498.64 152.288C496.933 152.288 495.397 151.914 494.032 151.168C492.688 150.4 491.632 149.322 490.864 147.936C490.117 146.549 489.743 144.949 489.743 143.136C489.743 141.301 490.117 139.69 490.864 138.304C491.61 136.917 492.656 135.85 494 135.104C495.344 134.357 496.89 133.984 498.64 133.984C500.325 133.984 501.829 134.346 503.152 135.072C504.496 135.797 505.53 136.832 506.256 138.176C507.002 139.498 507.376 141.024 507.376 142.752ZM502.736 141.472C502.714 140.32 502.298 139.402 501.488 138.72C500.677 138.016 499.685 137.664 498.512 137.664C497.402 137.664 496.464 138.005 495.696 138.688C494.949 139.349 494.49 140.277 494.32 141.472H502.736ZM520.47 134.016C522.582 134.016 524.288 134.688 525.59 136.032C526.891 137.354 527.542 139.21 527.542 141.6V152H523.062V142.208C523.062 140.8 522.71 139.722 522.006 138.976C521.302 138.208 520.342 137.824 519.126 137.824C517.888 137.824 516.907 138.208 516.182 138.976C515.478 139.722 515.126 140.8 515.126 142.208V152H510.646V134.272H515.126V136.48C515.723 135.712 516.48 135.114 517.398 134.688C518.336 134.24 519.36 134.016 520.47 134.016ZM537.018 137.952V146.528C537.018 147.125 537.156 147.562 537.434 147.84C537.732 148.096 538.223 148.224 538.906 148.224H540.986V152H538.17C534.394 152 532.506 150.165 532.506 146.496V137.952H530.394V134.272H532.506V129.888H537.018V134.272H540.986V137.952H537.018ZM560.688 142.752C560.688 143.392 560.645 143.968 560.56 144.48H547.6C547.707 145.76 548.155 146.762 548.944 147.488C549.733 148.213 550.704 148.576 551.856 148.576C553.52 148.576 554.704 147.861 555.408 146.432H560.24C559.728 148.138 558.747 149.546 557.296 150.656C555.845 151.744 554.064 152.288 551.952 152.288C550.245 152.288 548.709 151.914 547.344 151.168C546 150.4 544.944 149.322 544.176 147.936C543.429 146.549 543.056 144.949 543.056 143.136C543.056 141.301 543.429 139.69 544.176 138.304C544.923 136.917 545.968 135.85 547.312 135.104C548.656 134.357 550.203 133.984 551.952 133.984C553.637 133.984 555.141 134.346 556.464 135.072C557.808 135.797 558.843 136.832 559.568 138.176C560.315 139.498 560.688 141.024 560.688 142.752ZM556.048 141.472C556.027 140.32 555.611 139.402 554.8 138.72C553.989 138.016 552.997 137.664 551.824 137.664C550.715 137.664 549.776 138.005 549.008 138.688C548.261 139.349 547.803 140.277 547.632 141.472H556.048ZM568.438 137.024C569.014 136.085 569.761 135.349 570.678 134.816C571.617 134.282 572.683 134.016 573.878 134.016V138.72H572.694C571.286 138.72 570.219 139.05 569.494 139.712C568.79 140.373 568.438 141.525 568.438 143.168V152H563.958V134.272H568.438V137.024Z" fill="black"/>
<path d="M96.92 152.224C95.3627 152.224 93.9547 151.957 92.696 151.424C91.4587 150.89 90.4773 150.122 89.752 149.12C89.0267 148.117 88.6533 146.933 88.632 145.568H93.432C93.496 146.485 93.816 147.21 94.392 147.744C94.9893 148.277 95.8 148.544 96.824 148.544C97.8693 148.544 98.6907 148.298 99.288 147.808C99.8853 147.296 100.184 146.634 100.184 145.824C100.184 145.162 99.9813 144.618 99.576 144.192C99.1707 143.765 98.6587 143.434 98.04 143.2C97.4427 142.944 96.6107 142.666 95.544 142.368C94.0933 141.941 92.9093 141.525 91.992 141.12C91.096 140.693 90.3173 140.064 89.656 139.232C89.016 138.378 88.696 137.248 88.696 135.84C88.696 134.517 89.0267 133.365 89.688 132.384C90.3493 131.402 91.2773 130.656 92.472 130.144C93.6667 129.61 95.032 129.344 96.568 129.344C98.872 129.344 100.739 129.909 102.168 131.04C103.619 132.149 104.419 133.706 104.568 135.712H99.64C99.5973 134.944 99.2667 134.314 98.648 133.824C98.0507 133.312 97.2507 133.056 96.248 133.056C95.3733 133.056 94.6693 133.28 94.136 133.728C93.624 134.176 93.368 134.826 93.368 135.68C93.368 136.277 93.56 136.778 93.944 137.184C94.3493 137.568 94.84 137.888 95.416 138.144C96.0133 138.378 96.8453 138.656 97.912 138.976C99.3627 139.402 100.547 139.829 101.464 140.256C102.381 140.682 103.171 141.322 103.832 142.176C104.493 143.029 104.824 144.149 104.824 145.536C104.824 146.73 104.515 147.84 103.896 148.864C103.277 149.888 102.371 150.709 101.176 151.328C99.9813 151.925 98.5627 152.224 96.92 152.224ZM113.924 137.952V146.528C113.924 147.125 114.063 147.562 114.34 147.84C114.639 148.096 115.129 148.224 115.812 148.224H117.892V152H115.076C111.3 152 109.412 150.165 109.412 146.496V137.952H107.3V134.272H109.412V129.888H113.924V134.272H117.892V137.952H113.924ZM137.594 142.752C137.594 143.392 137.552 143.968 137.466 144.48H124.506C124.613 145.76 125.061 146.762 125.85 147.488C126.64 148.213 127.61 148.576 128.762 148.576C130.426 148.576 131.61 147.861 132.314 146.432H137.146C136.634 148.138 135.653 149.546 134.202 150.656C132.752 151.744 130.97 152.288 128.858 152.288C127.152 152.288 125.616 151.914 124.25 151.168C122.906 150.4 121.85 149.322 121.082 147.936C120.336 146.549 119.962 144.949 119.962 143.136C119.962 141.301 120.336 139.69 121.082 138.304C121.829 136.917 122.874 135.85 124.218 135.104C125.562 134.357 127.109 133.984 128.858 133.984C130.544 133.984 132.048 134.346 133.37 135.072C134.714 135.797 135.749 136.832 136.474 138.176C137.221 139.498 137.594 141.024 137.594 142.752ZM132.954 141.472C132.933 140.32 132.517 139.402 131.706 138.72C130.896 138.016 129.904 137.664 128.73 137.664C127.621 137.664 126.682 138.005 125.914 138.688C125.168 139.349 124.709 140.277 124.538 141.472H132.954ZM145.344 136.832C145.92 136.021 146.71 135.349 147.712 134.816C148.736 134.261 149.899 133.984 151.2 133.984C152.715 133.984 154.08 134.357 155.296 135.104C156.534 135.85 157.504 136.917 158.208 138.304C158.934 139.669 159.296 141.258 159.296 143.072C159.296 144.885 158.934 146.496 158.208 147.904C157.504 149.29 156.534 150.368 155.296 151.136C154.08 151.904 152.715 152.288 151.2 152.288C149.899 152.288 148.747 152.021 147.744 151.488C146.763 150.954 145.963 150.282 145.344 149.472V160.448H140.864V134.272H145.344V136.832ZM154.72 143.072C154.72 142.005 154.496 141.088 154.048 140.32C153.622 139.53 153.046 138.933 152.32 138.528C151.616 138.122 150.848 137.92 150.016 137.92C149.206 137.92 148.438 138.133 147.712 138.56C147.008 138.965 146.432 139.562 145.984 140.352C145.558 141.141 145.344 142.069 145.344 143.136C145.344 144.202 145.558 145.13 145.984 145.92C146.432 146.709 147.008 147.317 147.712 147.744C148.438 148.149 149.206 148.352 150.016 148.352C150.848 148.352 151.616 148.138 152.32 147.712C153.046 147.285 153.622 146.677 154.048 145.888C154.496 145.098 154.72 144.16 154.72 143.072ZM169.473 147.456V143.936L179.937 128.96H185.153V143.552H187.969V147.456H185.153V152H180.673V147.456H169.473ZM180.961 133.76L174.401 143.552H180.961V133.76ZM193.317 152.224C192.506 152.224 191.834 151.978 191.301 151.488C190.789 150.976 190.533 150.346 190.533 149.6C190.533 148.853 190.789 148.234 191.301 147.744C191.834 147.232 192.506 146.976 193.317 146.976C194.106 146.976 194.757 147.232 195.269 147.744C195.781 148.234 196.037 148.853 196.037 149.6C196.037 150.346 195.781 150.976 195.269 151.488C194.757 151.978 194.106 152.224 193.317 152.224ZM193.317 138.976C192.506 138.976 191.834 138.73 191.301 138.24C190.789 137.728 190.533 137.098 190.533 136.352C190.533 135.605 190.789 134.986 191.301 134.496C191.834 133.984 192.506 133.728 193.317 133.728C194.106 133.728 194.757 133.984 195.269 134.496C195.781 134.986 196.037 135.605 196.037 136.352C196.037 137.098 195.781 137.728 195.269 138.24C194.757 138.73 194.106 138.976 193.317 138.976Z" fill="white"/>
</svg>
