<svg width="715" height="282" viewBox="0 0 715 282" fill="none" xmlns="http://www.w3.org/2000/svg">
<path d="M42.5457 198.63C19.0484 132.534 54.5821 59.5485 120.678 36.0511C176.22 16.3058 238.093 45.0256 257.839 100.568L261.458 110.748C279.578 161.719 252.948 217.728 201.977 235.848L155.542 252.356C109.503 268.723 58.9128 244.669 42.5457 198.63Z" fill="#827C4C"/>
<path d="M99.92 155.224C98.3627 155.224 96.9547 154.957 95.696 154.424C94.4587 153.891 93.4773 153.123 92.752 152.12C92.0267 151.117 91.6533 149.933 91.632 148.568H96.432C96.496 149.485 96.816 150.211 97.392 150.744C97.9893 151.277 98.8 151.544 99.824 151.544C100.869 151.544 101.691 151.299 102.288 150.808C102.885 150.296 103.184 149.635 103.184 148.824C103.184 148.163 102.981 147.619 102.576 147.192C102.171 146.765 101.659 146.435 101.04 146.2C100.443 145.944 99.6107 145.667 98.544 145.368C97.0933 144.941 95.9093 144.525 94.992 144.12C94.096 143.693 93.3173 143.064 92.656 142.232C92.016 141.379 91.696 140.248 91.696 138.84C91.696 137.517 92.0267 136.365 92.688 135.384C93.3493 134.403 94.2773 133.656 95.472 133.144C96.6667 132.611 98.032 132.344 99.568 132.344C101.872 132.344 103.739 132.909 105.168 134.04C106.619 135.149 107.419 136.707 107.568 138.712H102.64C102.597 137.944 102.267 137.315 101.648 136.824C101.051 136.312 100.251 136.056 99.248 136.056C98.3733 136.056 97.6693 136.28 97.136 136.728C96.624 137.176 96.368 137.827 96.368 138.68C96.368 139.277 96.56 139.779 96.944 140.184C97.3493 140.568 97.84 140.888 98.416 141.144C99.0133 141.379 99.8453 141.656 100.912 141.976C102.363 142.403 103.547 142.829 104.464 143.256C105.381 143.683 106.171 144.323 106.832 145.176C107.493 146.029 107.824 147.149 107.824 148.536C107.824 149.731 107.515 150.84 106.896 151.864C106.277 152.888 105.371 153.709 104.176 154.328C102.981 154.925 101.563 155.224 99.92 155.224ZM116.924 140.952V149.528C116.924 150.125 117.063 150.563 117.34 150.84C117.639 151.096 118.129 151.224 118.812 151.224H120.892V155H118.076C114.3 155 112.412 153.165 112.412 149.496V140.952H110.3V137.272H112.412V132.888H116.924V137.272H120.892V140.952H116.924ZM140.594 145.752C140.594 146.392 140.552 146.968 140.466 147.48H127.506C127.613 148.76 128.061 149.763 128.85 150.488C129.64 151.213 130.61 151.576 131.762 151.576C133.426 151.576 134.61 150.861 135.314 149.432H140.146C139.634 151.139 138.653 152.547 137.202 153.656C135.752 154.744 133.97 155.288 131.858 155.288C130.152 155.288 128.616 154.915 127.25 154.168C125.906 153.4 124.85 152.323 124.082 150.936C123.336 149.549 122.962 147.949 122.962 146.136C122.962 144.301 123.336 142.691 124.082 141.304C124.829 139.917 125.874 138.851 127.218 138.104C128.562 137.357 130.109 136.984 131.858 136.984C133.544 136.984 135.048 137.347 136.37 138.072C137.714 138.797 138.749 139.832 139.474 141.176C140.221 142.499 140.594 144.024 140.594 145.752ZM135.954 144.472C135.933 143.32 135.517 142.403 134.706 141.72C133.896 141.016 132.904 140.664 131.73 140.664C130.621 140.664 129.682 141.005 128.914 141.688C128.168 142.349 127.709 143.277 127.538 144.472H135.954ZM148.344 139.832C148.92 139.021 149.71 138.349 150.712 137.816C151.736 137.261 152.899 136.984 154.2 136.984C155.715 136.984 157.08 137.357 158.296 138.104C159.534 138.851 160.504 139.917 161.208 141.304C161.934 142.669 162.296 144.259 162.296 146.072C162.296 147.885 161.934 149.496 161.208 150.904C160.504 152.291 159.534 153.368 158.296 154.136C157.08 154.904 155.715 155.288 154.2 155.288C152.899 155.288 151.747 155.021 150.744 154.488C149.763 153.955 148.963 153.283 148.344 152.472V163.448H143.864V137.272H148.344V139.832ZM157.72 146.072C157.72 145.005 157.496 144.088 157.048 143.32C156.622 142.531 156.046 141.933 155.32 141.528C154.616 141.123 153.848 140.92 153.016 140.92C152.206 140.92 151.438 141.133 150.712 141.56C150.008 141.965 149.432 142.563 148.984 143.352C148.558 144.141 148.344 145.069 148.344 146.136C148.344 147.203 148.558 148.131 148.984 148.92C149.432 149.709 150.008 150.317 150.712 150.744C151.438 151.149 152.206 151.352 153.016 151.352C153.848 151.352 154.616 151.139 155.32 150.712C156.046 150.285 156.622 149.677 157.048 148.888C157.496 148.099 157.72 147.16 157.72 146.072ZM174.073 149.944C176.121 148.237 177.753 146.819 178.969 145.688C180.185 144.536 181.198 143.341 182.009 142.104C182.819 140.867 183.225 139.651 183.225 138.456C183.225 137.368 182.969 136.515 182.457 135.896C181.945 135.277 181.155 134.968 180.089 134.968C179.022 134.968 178.201 135.331 177.625 136.056C177.049 136.76 176.75 137.731 176.729 138.968H172.377C172.462 136.408 173.219 134.467 174.649 133.144C176.099 131.821 177.934 131.16 180.153 131.16C182.585 131.16 184.451 131.811 185.753 133.112C187.054 134.392 187.705 136.088 187.705 138.2C187.705 139.864 187.257 141.453 186.361 142.968C185.465 144.483 184.441 145.805 183.289 146.936C182.137 148.045 180.633 149.389 178.777 150.968H188.217V154.68H172.409V151.352L174.073 149.944ZM193.536 155.224C192.725 155.224 192.053 154.979 191.52 154.488C191.008 153.976 190.752 153.347 190.752 152.6C190.752 151.853 191.008 151.235 191.52 150.744C192.053 150.232 192.725 149.976 193.536 149.976C194.325 149.976 194.976 150.232 195.488 150.744C196 151.235 196.256 151.853 196.256 152.6C196.256 153.347 196 153.976 195.488 154.488C194.976 154.979 194.325 155.224 193.536 155.224ZM193.536 141.976C192.725 141.976 192.053 141.731 191.52 141.24C191.008 140.728 190.752 140.099 190.752 139.352C190.752 138.605 191.008 137.987 191.52 137.496C192.053 136.984 192.725 136.728 193.536 136.728C194.325 136.728 194.976 136.984 195.488 137.496C196 137.987 196.256 138.605 196.256 139.352C196.256 140.099 196 140.728 195.488 141.24C194.976 141.731 194.325 141.976 193.536 141.976Z" fill="white"/>
<path d="M233.728 155L228.8 146.296H226.688V155H222.208V132.664H230.592C232.32 132.664 233.792 132.973 235.008 133.592C236.224 134.189 237.131 135.011 237.728 136.056C238.347 137.08 238.656 138.232 238.656 139.512C238.656 140.984 238.229 142.317 237.376 143.512C236.523 144.685 235.253 145.496 233.568 145.944L238.912 155H233.728ZM226.688 142.936H230.432C231.648 142.936 232.555 142.648 233.152 142.072C233.749 141.475 234.048 140.653 234.048 139.608C234.048 138.584 233.749 137.795 233.152 137.24C232.555 136.664 231.648 136.376 230.432 136.376H226.688V142.936ZM259.668 137.272L248.692 163.384H243.924L247.764 154.552L240.66 137.272H245.684L250.26 149.656L254.9 137.272H259.668ZM260.931 146.072C260.931 144.28 261.283 142.691 261.987 141.304C262.712 139.917 263.694 138.851 264.931 138.104C266.168 137.357 267.544 136.984 269.059 136.984C270.211 136.984 271.31 137.24 272.355 137.752C273.4 138.243 274.232 138.904 274.851 139.736V131.32H279.395V155H274.851V152.376C274.296 153.251 273.518 153.955 272.515 154.488C271.512 155.021 270.35 155.288 269.027 155.288C267.534 155.288 266.168 154.904 264.931 154.136C263.694 153.368 262.712 152.291 261.987 150.904C261.283 149.496 260.931 147.885 260.931 146.072ZM274.883 146.136C274.883 145.048 274.67 144.12 274.243 143.352C273.816 142.563 273.24 141.965 272.515 141.56C271.79 141.133 271.011 140.92 270.179 140.92C269.347 140.92 268.579 141.123 267.875 141.528C267.171 141.933 266.595 142.531 266.147 143.32C265.72 144.088 265.507 145.005 265.507 146.072C265.507 147.139 265.72 148.077 266.147 148.888C266.595 149.677 267.171 150.285 267.875 150.712C268.6 151.139 269.368 151.352 270.179 151.352C271.011 151.352 271.79 151.149 272.515 150.744C273.24 150.317 273.816 149.72 274.243 148.952C274.67 148.163 274.883 147.224 274.883 146.136ZM299.268 155.288C297.561 155.288 296.025 154.915 294.66 154.168C293.294 153.4 292.217 152.323 291.428 150.936C290.66 149.549 290.276 147.949 290.276 146.136C290.276 144.323 290.67 142.723 291.46 141.336C292.27 139.949 293.369 138.883 294.756 138.136C296.142 137.368 297.689 136.984 299.396 136.984C301.102 136.984 302.649 137.368 304.036 138.136C305.422 138.883 306.51 139.949 307.3 141.336C308.11 142.723 308.516 144.323 308.516 146.136C308.516 147.949 308.1 149.549 307.267 150.936C306.457 152.323 305.348 153.4 303.94 154.168C302.553 154.915 300.996 155.288 299.268 155.288ZM299.268 151.384C300.078 151.384 300.836 151.192 301.54 150.808C302.265 150.403 302.841 149.805 303.268 149.016C303.694 148.227 303.908 147.267 303.908 146.136C303.908 144.451 303.46 143.16 302.564 142.264C301.689 141.347 300.612 140.888 299.332 140.888C298.052 140.888 296.974 141.347 296.1 142.264C295.246 143.16 294.82 144.451 294.82 146.136C294.82 147.821 295.236 149.123 296.068 150.04C296.921 150.936 297.988 151.384 299.268 151.384ZM316.282 139.832C316.858 139.021 317.647 138.349 318.65 137.816C319.674 137.261 320.836 136.984 322.138 136.984C323.652 136.984 325.018 137.357 326.234 138.104C327.471 138.851 328.442 139.917 329.146 141.304C329.871 142.669 330.234 144.259 330.234 146.072C330.234 147.885 329.871 149.496 329.146 150.904C328.442 152.291 327.471 153.368 326.234 154.136C325.018 154.904 323.652 155.288 322.138 155.288C320.836 155.288 319.684 155.021 318.682 154.488C317.7 153.955 316.9 153.283 316.282 152.472V163.448H311.802V137.272H316.282V139.832ZM325.658 146.072C325.658 145.005 325.434 144.088 324.986 143.32C324.559 142.531 323.983 141.933 323.258 141.528C322.554 141.123 321.786 140.92 320.954 140.92C320.143 140.92 319.375 141.133 318.65 141.56C317.946 141.965 317.37 142.563 316.922 143.352C316.495 144.141 316.282 145.069 316.282 146.136C316.282 147.203 316.495 148.131 316.922 148.92C317.37 149.709 317.946 150.317 318.65 150.744C319.375 151.149 320.143 151.352 320.954 151.352C321.786 151.352 322.554 151.139 323.258 150.712C323.983 150.285 324.559 149.677 324.986 148.888C325.434 148.099 325.658 147.16 325.658 146.072ZM345.594 139.832C346.17 139.021 346.96 138.349 347.962 137.816C348.986 137.261 350.149 136.984 351.45 136.984C352.965 136.984 354.33 137.357 355.546 138.104C356.784 138.851 357.754 139.917 358.458 141.304C359.184 142.669 359.546 144.259 359.546 146.072C359.546 147.885 359.184 149.496 358.458 150.904C357.754 152.291 356.784 153.368 355.546 154.136C354.33 154.904 352.965 155.288 351.45 155.288C350.149 155.288 348.997 155.021 347.994 154.488C347.013 153.955 346.213 153.283 345.594 152.472V163.448H341.114V137.272H345.594V139.832ZM354.97 146.072C354.97 145.005 354.746 144.088 354.298 143.32C353.872 142.531 353.296 141.933 352.57 141.528C351.866 141.123 351.098 140.92 350.266 140.92C349.456 140.92 348.688 141.133 347.962 141.56C347.258 141.965 346.682 142.563 346.234 143.352C345.808 144.141 345.594 145.069 345.594 146.136C345.594 147.203 345.808 148.131 346.234 148.92C346.682 149.709 347.258 150.317 347.962 150.744C348.688 151.149 349.456 151.352 350.266 151.352C351.098 151.352 351.866 151.139 352.57 150.712C353.296 150.285 353.872 149.677 354.298 148.888C354.746 148.099 354.97 147.16 354.97 146.072ZM361.65 146.072C361.65 144.28 362.002 142.691 362.706 141.304C363.431 139.917 364.402 138.851 365.618 138.104C366.855 137.357 368.231 136.984 369.746 136.984C371.068 136.984 372.22 137.251 373.202 137.784C374.204 138.317 375.004 138.989 375.602 139.8V137.272H380.114V155H375.602V152.408C375.026 153.24 374.226 153.933 373.202 154.488C372.199 155.021 371.036 155.288 369.714 155.288C368.22 155.288 366.855 154.904 365.618 154.136C364.402 153.368 363.431 152.291 362.706 150.904C362.002 149.496 361.65 147.885 361.65 146.072ZM375.602 146.136C375.602 145.048 375.388 144.12 374.962 143.352C374.535 142.563 373.959 141.965 373.234 141.56C372.508 141.133 371.73 140.92 370.898 140.92C370.066 140.92 369.298 141.123 368.594 141.528C367.89 141.933 367.314 142.531 366.866 143.32C366.439 144.088 366.226 145.005 366.226 146.072C366.226 147.139 366.439 148.077 366.866 148.888C367.314 149.677 367.89 150.285 368.594 150.712C369.319 151.139 370.087 151.352 370.898 151.352C371.73 151.352 372.508 151.149 373.234 150.744C373.959 150.317 374.535 149.72 374.962 148.952C375.388 148.163 375.602 147.224 375.602 146.136ZM375.25 132.056C375.25 133.165 374.887 134.061 374.162 134.744C373.458 135.405 372.572 135.736 371.506 135.736C370.46 135.736 369.575 135.405 368.85 134.744C368.124 134.061 367.762 133.165 367.762 132.056C367.762 130.947 368.124 130.061 368.85 129.4C369.575 128.717 370.46 128.376 371.506 128.376C372.572 128.376 373.458 128.717 374.162 129.4C374.887 130.061 375.25 130.947 375.25 132.056ZM373.042 132.056C373.042 131.565 372.892 131.181 372.594 130.904C372.295 130.605 371.932 130.456 371.506 130.456C371.079 130.456 370.716 130.605 370.418 130.904C370.119 131.181 369.97 131.565 369.97 132.056C369.97 132.504 370.119 132.888 370.418 133.208C370.716 133.507 371.079 133.656 371.506 133.656C371.932 133.656 372.295 133.507 372.594 133.208C372.892 132.888 373.042 132.504 373.042 132.056ZM390.962 146.072C390.962 144.28 391.314 142.691 392.018 141.304C392.744 139.917 393.725 138.851 394.962 138.104C396.2 137.357 397.576 136.984 399.09 136.984C400.242 136.984 401.341 137.24 402.386 137.752C403.432 138.243 404.264 138.904 404.882 139.736V131.32H409.426V155H404.882V152.376C404.328 153.251 403.549 153.955 402.546 154.488C401.544 155.021 400.381 155.288 399.058 155.288C397.565 155.288 396.2 154.904 394.962 154.136C393.725 153.368 392.744 152.291 392.018 150.904C391.314 149.496 390.962 147.885 390.962 146.072ZM404.914 146.136C404.914 145.048 404.701 144.12 404.274 143.352C403.848 142.563 403.272 141.965 402.546 141.56C401.821 141.133 401.042 140.92 400.21 140.92C399.378 140.92 398.61 141.123 397.906 141.528C397.202 141.933 396.626 142.531 396.178 143.32C395.752 144.088 395.538 145.005 395.538 146.072C395.538 147.139 395.752 148.077 396.178 148.888C396.626 149.677 397.202 150.285 397.906 150.712C398.632 151.139 399.4 151.352 400.21 151.352C401.042 151.352 401.821 151.149 402.546 150.744C403.272 150.317 403.848 149.72 404.274 148.952C404.701 148.163 404.914 147.224 404.914 146.136ZM416.074 135.16C415.284 135.16 414.623 134.915 414.09 134.424C413.578 133.912 413.322 133.283 413.322 132.536C413.322 131.789 413.578 131.171 414.09 130.68C414.623 130.168 415.284 129.912 416.074 129.912C416.863 129.912 417.514 130.168 418.026 130.68C418.559 131.171 418.826 131.789 418.826 132.536C418.826 133.283 418.559 133.912 418.026 134.424C417.514 134.915 416.863 135.16 416.074 135.16ZM418.282 137.272V155H413.802V137.272H418.282ZM432.532 137.016C434.644 137.016 436.351 137.688 437.652 139.032C438.953 140.355 439.604 142.211 439.604 144.6V155H435.124V145.208C435.124 143.8 434.772 142.723 434.068 141.976C433.364 141.208 432.404 140.824 431.188 140.824C429.951 140.824 428.969 141.208 428.244 141.976C427.54 142.723 427.188 143.8 427.188 145.208V155H422.708V137.272H427.188V139.48C427.785 138.712 428.543 138.115 429.46 137.688C430.399 137.24 431.423 137.016 432.532 137.016ZM467.777 139.576C467.777 140.771 467.489 141.891 466.913 142.936C466.359 143.981 465.473 144.824 464.257 145.464C463.063 146.104 461.548 146.424 459.713 146.424H455.969V155H451.489V132.664H459.713C461.441 132.664 462.913 132.963 464.129 133.56C465.345 134.157 466.252 134.979 466.849 136.024C467.468 137.069 467.777 138.253 467.777 139.576ZM459.521 142.808C460.759 142.808 461.676 142.531 462.273 141.976C462.871 141.4 463.169 140.6 463.169 139.576C463.169 137.4 461.953 136.312 459.521 136.312H455.969V142.808H459.521ZM469.87 143.8C469.87 141.603 470.361 139.64 471.342 137.912C472.345 136.163 473.699 134.808 475.406 133.848C477.134 132.867 479.065 132.376 481.198 132.376C483.694 132.376 485.881 133.016 487.758 134.296C489.635 135.576 490.947 137.347 491.694 139.608H486.542C486.03 138.541 485.305 137.741 484.366 137.208C483.449 136.675 482.382 136.408 481.166 136.408C479.865 136.408 478.702 136.717 477.678 137.336C476.675 137.933 475.886 138.787 475.31 139.896C474.755 141.005 474.478 142.307 474.478 143.8C474.478 145.272 474.755 146.573 475.31 147.704C475.886 148.813 476.675 149.677 477.678 150.296C478.702 150.893 479.865 151.192 481.166 151.192C482.382 151.192 483.449 150.925 484.366 150.392C485.305 149.837 486.03 149.027 486.542 147.96H491.694C490.947 150.243 489.635 152.024 487.758 153.304C485.902 154.563 483.715 155.192 481.198 155.192C479.065 155.192 477.134 154.712 475.406 153.752C473.699 152.771 472.345 151.416 471.342 149.688C470.361 147.96 469.87 145.997 469.87 143.8ZM238.688 193.752C238.688 194.392 238.645 194.968 238.56 195.48H225.6C225.707 196.76 226.155 197.763 226.944 198.488C227.733 199.213 228.704 199.576 229.856 199.576C231.52 199.576 232.704 198.861 233.408 197.432H238.24C237.728 199.139 236.747 200.547 235.296 201.656C233.845 202.744 232.064 203.288 229.952 203.288C228.245 203.288 226.709 202.915 225.344 202.168C224 201.4 222.944 200.323 222.176 198.936C221.429 197.549 221.056 195.949 221.056 194.136C221.056 192.301 221.429 190.691 222.176 189.304C222.923 187.917 223.968 186.851 225.312 186.104C226.656 185.357 228.203 184.984 229.952 184.984C231.637 184.984 233.141 185.347 234.464 186.072C235.808 186.797 236.843 187.832 237.568 189.176C238.315 190.499 238.688 192.024 238.688 193.752ZM234.048 192.472C234.027 191.32 233.611 190.403 232.8 189.72C231.989 189.016 230.997 188.664 229.824 188.664C228.715 188.664 227.776 189.005 227.008 189.688C226.261 190.349 225.803 191.277 225.632 192.472H234.048ZM246.438 179.32V203H241.958V179.32H246.438ZM255.344 179.32V203H250.864V179.32H255.344ZM276.251 193.752C276.251 194.392 276.208 194.968 276.123 195.48H263.163C263.269 196.76 263.717 197.763 264.507 198.488C265.296 199.213 266.267 199.576 267.419 199.576C269.083 199.576 270.267 198.861 270.971 197.432H275.803C275.291 199.139 274.309 200.547 272.859 201.656C271.408 202.744 269.627 203.288 267.515 203.288C265.808 203.288 264.272 202.915 262.907 202.168C261.563 201.4 260.507 200.323 259.739 198.936C258.992 197.549 258.618 195.949 258.618 194.136C258.618 192.301 258.992 190.691 259.739 189.304C260.485 187.917 261.531 186.851 262.875 186.104C264.219 185.357 265.765 184.984 267.515 184.984C269.2 184.984 270.704 185.347 272.027 186.072C273.371 186.797 274.405 187.832 275.131 189.176C275.877 190.499 276.251 192.024 276.251 193.752ZM271.611 192.472C271.589 191.32 271.173 190.403 270.363 189.72C269.552 189.016 268.56 188.664 267.387 188.664C266.277 188.664 265.339 189.005 264.571 189.688C263.824 190.349 263.365 191.277 263.195 192.472H271.611ZM284.001 188.024C284.577 187.085 285.323 186.349 286.241 185.816C287.179 185.283 288.246 185.016 289.441 185.016V189.72H288.257C286.849 189.72 285.782 190.051 285.057 190.712C284.353 191.373 284.001 192.525 284.001 194.168V203H279.521V185.272H284.001V188.024ZM304.563 187.864C305.139 187.011 305.928 186.317 306.931 185.784C307.955 185.251 309.118 184.984 310.419 184.984C311.934 184.984 313.299 185.357 314.515 186.104C315.752 186.851 316.723 187.917 317.427 189.304C318.152 190.669 318.515 192.259 318.515 194.072C318.515 195.885 318.152 197.496 317.427 198.904C316.723 200.291 315.752 201.368 314.515 202.136C313.299 202.904 311.934 203.288 310.419 203.288C309.096 203.288 307.934 203.032 306.931 202.52C305.95 201.987 305.16 201.304 304.563 200.472V203H300.083V179.32H304.563V187.864ZM313.939 194.072C313.939 193.005 313.715 192.088 313.267 191.32C312.84 190.531 312.264 189.933 311.539 189.528C310.835 189.123 310.067 188.92 309.235 188.92C308.424 188.92 307.656 189.133 306.931 189.56C306.227 189.965 305.651 190.563 305.203 191.352C304.776 192.141 304.563 193.069 304.563 194.136C304.563 195.203 304.776 196.131 305.203 196.92C305.651 197.709 306.227 198.317 306.931 198.744C307.656 199.149 308.424 199.352 309.235 199.352C310.067 199.352 310.835 199.139 311.539 198.712C312.264 198.285 312.84 197.677 313.267 196.888C313.715 196.099 313.939 195.16 313.939 194.072ZM353.003 193.72C353.003 194.189 352.949 194.744 352.843 195.384H339.179C339.349 196.728 339.872 197.763 340.747 198.488C341.643 199.213 342.645 199.576 343.755 199.576C344.779 199.576 345.621 199.384 346.283 199C346.944 198.616 347.413 198.093 347.691 197.432H352.523C352.032 199.139 351.115 200.547 349.771 201.656C348.427 202.744 346.795 203.288 344.875 203.288C343.573 203.288 342.379 203.021 341.291 202.488C340.224 201.955 339.381 201.251 338.763 200.376V203H334.667V200.376C334.005 201.251 333.163 201.955 332.139 202.488C331.115 203.021 329.973 203.288 328.715 203.288C327.221 203.288 325.856 202.904 324.619 202.136C323.381 201.368 322.4 200.291 321.674 198.904C320.97 197.496 320.618 195.885 320.618 194.072C320.618 192.259 320.97 190.669 321.674 189.304C322.4 187.917 323.392 186.851 324.651 186.104C325.909 185.357 327.317 184.984 328.875 184.984C331.349 184.984 333.301 185.912 334.731 187.768V185.272H338.763V187.768C339.531 186.808 340.416 186.104 341.419 185.656C342.421 185.208 343.573 184.984 344.875 184.984C346.453 184.984 347.851 185.357 349.067 186.104C350.304 186.829 351.264 187.864 351.947 189.208C352.651 190.531 353.003 192.035 353.003 193.72ZM348.363 192.664C348.341 191.448 347.904 190.477 347.051 189.752C346.197 189.027 345.131 188.664 343.851 188.664C342.677 188.664 341.653 189.027 340.779 189.752C339.925 190.456 339.392 191.427 339.179 192.664H348.363ZM329.867 199.352C330.699 199.352 331.477 199.149 332.203 198.744C332.928 198.317 333.504 197.72 333.931 196.952C334.357 196.163 334.571 195.224 334.571 194.136C334.571 193.048 334.357 192.12 333.931 191.352C333.504 190.563 332.928 189.965 332.203 189.56C331.477 189.133 330.699 188.92 329.867 188.92C329.035 188.92 328.267 189.123 327.562 189.528C326.859 189.933 326.283 190.531 325.835 191.32C325.408 192.088 325.195 193.005 325.195 194.072C325.195 195.139 325.408 196.077 325.835 196.888C326.283 197.677 326.859 198.285 327.562 198.712C328.288 199.139 329.056 199.352 329.867 199.352ZM360.719 188.024C361.295 187.085 362.042 186.349 362.959 185.816C363.898 185.283 364.965 185.016 366.159 185.016V189.72H364.975C363.567 189.72 362.501 190.051 361.775 190.712C361.071 191.373 360.719 192.525 360.719 194.168V203H356.239V185.272H360.719V188.024ZM373.657 187.864C374.233 187.011 375.022 186.317 376.025 185.784C377.049 185.251 378.211 184.984 379.513 184.984C381.027 184.984 382.393 185.357 383.609 186.104C384.846 186.851 385.817 187.917 386.521 189.304C387.246 190.669 387.609 192.259 387.609 194.072C387.609 195.885 387.246 197.496 386.521 198.904C385.817 200.291 384.846 201.368 383.609 202.136C382.393 202.904 381.027 203.288 379.513 203.288C378.19 203.288 377.027 203.032 376.025 202.52C375.043 201.987 374.254 201.304 373.657 200.472V203H369.177V179.32H373.657V187.864ZM383.033 194.072C383.033 193.005 382.809 192.088 382.361 191.32C381.934 190.531 381.358 189.933 380.633 189.528C379.929 189.123 379.161 188.92 378.329 188.92C377.518 188.92 376.75 189.133 376.025 189.56C375.321 189.965 374.745 190.563 374.297 191.352C373.87 192.141 373.657 193.069 373.657 194.136C373.657 195.203 373.87 196.131 374.297 196.92C374.745 197.709 375.321 198.317 376.025 198.744C376.75 199.149 377.518 199.352 378.329 199.352C379.161 199.352 379.929 199.139 380.633 198.712C381.358 198.285 381.934 197.677 382.361 196.888C382.809 196.099 383.033 195.16 383.033 194.072ZM389.712 194.072C389.712 192.28 390.064 190.691 390.768 189.304C391.494 187.917 392.464 186.851 393.68 186.104C394.918 185.357 396.294 184.984 397.808 184.984C399.131 184.984 400.283 185.251 401.264 185.784C402.267 186.317 403.067 186.989 403.664 187.8V185.272H408.176V203H403.664V200.408C403.088 201.24 402.288 201.933 401.264 202.488C400.262 203.021 399.099 203.288 397.776 203.288C396.283 203.288 394.918 202.904 393.68 202.136C392.464 201.368 391.494 200.291 390.768 198.904C390.064 197.496 389.712 195.885 389.712 194.072ZM403.664 194.136C403.664 193.048 403.451 192.12 403.024 191.352C402.598 190.563 402.022 189.965 401.296 189.56C400.571 189.133 399.792 188.92 398.96 188.92C398.128 188.92 397.36 189.123 396.656 189.528C395.952 189.933 395.376 190.531 394.928 191.32C394.502 192.088 394.288 193.005 394.288 194.072C394.288 195.139 394.502 196.077 394.928 196.888C395.376 197.677 395.952 198.285 396.656 198.712C397.382 199.139 398.15 199.352 398.96 199.352C399.792 199.352 400.571 199.149 401.296 198.744C402.022 198.317 402.598 197.72 403.024 196.952C403.451 196.163 403.664 195.224 403.664 194.136ZM417.032 188.024C417.608 187.085 418.354 186.349 419.272 185.816C420.21 185.283 421.277 185.016 422.472 185.016V189.72H421.288C419.88 189.72 418.813 190.051 418.088 190.712C417.384 191.373 417.032 192.525 417.032 194.168V203H412.552V185.272H417.032V188.024ZM441.969 193.752C441.969 194.392 441.927 194.968 441.841 195.48H428.881C428.988 196.76 429.436 197.763 430.225 198.488C431.015 199.213 431.985 199.576 433.137 199.576C434.801 199.576 435.985 198.861 436.689 197.432H441.521C441.009 199.139 440.028 200.547 438.577 201.656C437.127 202.744 435.345 203.288 433.233 203.288C431.527 203.288 429.991 202.915 428.625 202.168C427.281 201.4 426.225 200.323 425.457 198.936C424.711 197.549 424.337 195.949 424.337 194.136C424.337 192.301 424.711 190.691 425.457 189.304C426.204 187.917 427.249 186.851 428.593 186.104C429.937 185.357 431.484 184.984 433.233 184.984C434.919 184.984 436.423 185.347 437.745 186.072C439.089 186.797 440.124 187.832 440.849 189.176C441.596 190.499 441.969 192.024 441.969 193.752ZM437.329 192.472C437.308 191.32 436.892 190.403 436.081 189.72C435.271 189.016 434.279 188.664 433.105 188.664C431.996 188.664 431.057 189.005 430.289 189.688C429.543 190.349 429.084 191.277 428.913 192.472H437.329ZM451.712 194.136C451.712 192.301 452.086 190.701 452.832 189.336C453.579 187.949 454.614 186.883 455.936 186.136C457.259 185.368 458.774 184.984 460.48 184.984C462.678 184.984 464.491 185.539 465.92 186.648C467.371 187.736 468.342 189.272 468.832 191.256H464C463.744 190.488 463.307 189.891 462.688 189.464C462.091 189.016 461.344 188.792 460.448 188.792C459.168 188.792 458.155 189.261 457.408 190.2C456.662 191.117 456.288 192.429 456.288 194.136C456.288 195.821 456.662 197.133 457.408 198.072C458.155 198.989 459.168 199.448 460.448 199.448C462.262 199.448 463.446 198.637 464 197.016H468.832C468.342 198.936 467.371 200.461 465.92 201.592C464.47 202.723 462.656 203.288 460.48 203.288C458.774 203.288 457.259 202.915 455.936 202.168C454.614 201.4 453.579 200.333 452.832 198.968C452.086 197.581 451.712 195.971 451.712 194.136ZM479.986 203.288C478.28 203.288 476.744 202.915 475.378 202.168C474.013 201.4 472.936 200.323 472.146 198.936C471.378 197.549 470.994 195.949 470.994 194.136C470.994 192.323 471.389 190.723 472.178 189.336C472.989 187.949 474.088 186.883 475.474 186.136C476.861 185.368 478.408 184.984 480.114 184.984C481.821 184.984 483.368 185.368 484.754 186.136C486.141 186.883 487.229 187.949 488.018 189.336C488.829 190.723 489.234 192.323 489.234 194.136C489.234 195.949 488.818 197.549 487.986 198.936C487.176 200.323 486.066 201.4 484.658 202.168C483.272 202.915 481.714 203.288 479.986 203.288ZM479.986 199.384C480.797 199.384 481.554 199.192 482.258 198.808C482.984 198.403 483.56 197.805 483.986 197.016C484.413 196.227 484.626 195.267 484.626 194.136C484.626 192.451 484.178 191.16 483.282 190.264C482.408 189.347 481.33 188.888 480.05 188.888C478.77 188.888 477.693 189.347 476.818 190.264C475.965 191.16 475.538 192.451 475.538 194.136C475.538 195.821 475.954 197.123 476.786 198.04C477.64 198.936 478.706 199.384 479.986 199.384ZM514.537 185.016C516.713 185.016 518.462 185.688 519.785 187.032C521.129 188.355 521.801 190.211 521.801 192.6V203H517.321V193.208C517.321 191.821 516.969 190.765 516.265 190.04C515.561 189.293 514.601 188.92 513.385 188.92C512.169 188.92 511.198 189.293 510.473 190.04C509.769 190.765 509.417 191.821 509.417 193.208V203H504.937V193.208C504.937 191.821 504.585 190.765 503.881 190.04C503.177 189.293 502.217 188.92 501.001 188.92C499.763 188.92 498.782 189.293 498.057 190.04C497.353 190.765 497.001 191.821 497.001 193.208V203H492.521V185.272H497.001V187.416C497.577 186.669 498.313 186.083 499.209 185.656C500.126 185.229 501.129 185.016 502.217 185.016C503.603 185.016 504.841 185.315 505.929 185.912C507.017 186.488 507.859 187.32 508.457 188.408C509.033 187.384 509.865 186.563 510.953 185.944C512.062 185.325 513.257 185.016 514.537 185.016ZM530.532 187.832C531.108 187.021 531.897 186.349 532.9 185.816C533.924 185.261 535.086 184.984 536.388 184.984C537.902 184.984 539.268 185.357 540.484 186.104C541.721 186.851 542.692 187.917 543.396 189.304C544.121 190.669 544.484 192.259 544.484 194.072C544.484 195.885 544.121 197.496 543.396 198.904C542.692 200.291 541.721 201.368 540.484 202.136C539.268 202.904 537.902 203.288 536.388 203.288C535.086 203.288 533.934 203.021 532.932 202.488C531.95 201.955 531.15 201.283 530.532 200.472V211.448H526.052V185.272H530.532V187.832ZM539.908 194.072C539.908 193.005 539.684 192.088 539.236 191.32C538.809 190.531 538.233 189.933 537.508 189.528C536.804 189.123 536.036 188.92 535.204 188.92C534.393 188.92 533.625 189.133 532.9 189.56C532.196 189.965 531.62 190.563 531.172 191.352C530.745 192.141 530.532 193.069 530.532 194.136C530.532 195.203 530.745 196.131 531.172 196.92C531.62 197.709 532.196 198.317 532.9 198.744C533.625 199.149 534.393 199.352 535.204 199.352C536.036 199.352 536.804 199.139 537.508 198.712C538.233 198.285 538.809 197.677 539.236 196.888C539.684 196.099 539.908 195.16 539.908 194.072ZM564.475 185.272V203H559.963V200.76C559.387 201.528 558.63 202.136 557.691 202.584C556.774 203.011 555.771 203.224 554.683 203.224C553.297 203.224 552.07 202.936 551.003 202.36C549.937 201.763 549.094 200.899 548.475 199.768C547.878 198.616 547.579 197.251 547.579 195.672V185.272H552.059V195.032C552.059 196.44 552.411 197.528 553.115 198.296C553.819 199.043 554.779 199.416 555.995 199.416C557.233 199.416 558.203 199.043 558.907 198.296C559.611 197.528 559.963 196.44 559.963 195.032V185.272H564.475ZM574.112 188.952V197.528C574.112 198.125 574.25 198.563 574.528 198.84C574.826 199.096 575.317 199.224 576 199.224H578.08V203H575.264C571.488 203 569.6 201.165 569.6 197.496V188.952H567.488V185.272H569.6V180.888H574.112V185.272H578.08V188.952H574.112ZM597.782 193.752C597.782 194.392 597.739 194.968 597.654 195.48H584.694C584.8 196.76 585.248 197.763 586.038 198.488C586.827 199.213 587.798 199.576 588.95 199.576C590.614 199.576 591.798 198.861 592.502 197.432H597.334C596.822 199.139 595.84 200.547 594.39 201.656C592.939 202.744 591.158 203.288 589.046 203.288C587.339 203.288 585.803 202.915 584.438 202.168C583.094 201.4 582.038 200.323 581.27 198.936C580.523 197.549 580.15 195.949 580.15 194.136C580.15 192.301 580.523 190.691 581.27 189.304C582.016 187.917 583.062 186.851 584.406 186.104C585.75 185.357 587.296 184.984 589.046 184.984C590.731 184.984 592.235 185.347 593.558 186.072C594.902 186.797 595.936 187.832 596.662 189.176C597.408 190.499 597.782 192.024 597.782 193.752ZM593.142 192.472C593.12 191.32 592.704 190.403 591.894 189.72C591.083 189.016 590.091 188.664 588.918 188.664C587.808 188.664 586.87 189.005 586.102 189.688C585.355 190.349 584.896 191.277 584.726 192.472H593.142ZM605.532 188.024C606.108 187.085 606.854 186.349 607.772 185.816C608.71 185.283 609.777 185.016 610.972 185.016V189.72H609.788C608.38 189.72 607.313 190.051 606.588 190.712C605.884 191.373 605.532 192.525 605.532 194.168V203H601.052V185.272H605.532V188.024Z" fill="black"/>
</svg>
