<svg width="625" height="245" viewBox="0 0 625 245" fill="none" xmlns="http://www.w3.org/2000/svg">
<path d="M12.1677 125.88C21.524 56.3584 86.52 7.72651 156.042 17.0829C214.462 24.9453 256.332 78.7973 248.47 137.218L247.029 147.926C239.813 201.539 190.503 239.151 136.891 231.936L88.0492 225.362C39.6238 218.845 5.65047 174.305 12.1677 125.88Z" fill="#F27984"/>
<path d="M81.92 133.224C80.3627 133.224 78.9547 132.957 77.696 132.424C76.4587 131.891 75.4773 131.123 74.752 130.12C74.0267 129.117 73.6533 127.933 73.632 126.568H78.432C78.496 127.485 78.816 128.211 79.392 128.744C79.9893 129.277 80.8 129.544 81.824 129.544C82.8693 129.544 83.6907 129.299 84.288 128.808C84.8853 128.296 85.184 127.635 85.184 126.824C85.184 126.163 84.9813 125.619 84.576 125.192C84.1707 124.765 83.6587 124.435 83.04 124.2C82.4427 123.944 81.6107 123.667 80.544 123.368C79.0933 122.941 77.9093 122.525 76.992 122.12C76.096 121.693 75.3173 121.064 74.656 120.232C74.016 119.379 73.696 118.248 73.696 116.84C73.696 115.517 74.0267 114.365 74.688 113.384C75.3493 112.403 76.2773 111.656 77.472 111.144C78.6667 110.611 80.032 110.344 81.568 110.344C83.872 110.344 85.7387 110.909 87.168 112.04C88.6187 113.149 89.4187 114.707 89.568 116.712H84.64C84.5973 115.944 84.2667 115.315 83.648 114.824C83.0507 114.312 82.2507 114.056 81.248 114.056C80.3733 114.056 79.6693 114.28 79.136 114.728C78.624 115.176 78.368 115.827 78.368 116.68C78.368 117.277 78.56 117.779 78.944 118.184C79.3493 118.568 79.84 118.888 80.416 119.144C81.0133 119.379 81.8453 119.656 82.912 119.976C84.3627 120.403 85.5467 120.829 86.464 121.256C87.3813 121.683 88.1707 122.323 88.832 123.176C89.4933 124.029 89.824 125.149 89.824 126.536C89.824 127.731 89.5147 128.84 88.896 129.864C88.2773 130.888 87.3707 131.709 86.176 132.328C84.9813 132.925 83.5627 133.224 81.92 133.224ZM98.924 118.952V127.528C98.924 128.125 99.0627 128.563 99.34 128.84C99.6387 129.096 100.129 129.224 100.812 129.224H102.892V133H100.076C96.3 133 94.412 131.165 94.412 127.496V118.952H92.3V115.272H94.412V110.888H98.924V115.272H102.892V118.952H98.924ZM122.594 123.752C122.594 124.392 122.552 124.968 122.466 125.48H109.506C109.613 126.76 110.061 127.763 110.85 128.488C111.64 129.213 112.61 129.576 113.762 129.576C115.426 129.576 116.61 128.861 117.314 127.432H122.146C121.634 129.139 120.653 130.547 119.202 131.656C117.752 132.744 115.97 133.288 113.858 133.288C112.152 133.288 110.616 132.915 109.25 132.168C107.906 131.4 106.85 130.323 106.082 128.936C105.336 127.549 104.962 125.949 104.962 124.136C104.962 122.301 105.336 120.691 106.082 119.304C106.829 117.917 107.874 116.851 109.218 116.104C110.562 115.357 112.109 114.984 113.858 114.984C115.544 114.984 117.048 115.347 118.37 116.072C119.714 116.797 120.749 117.832 121.474 119.176C122.221 120.499 122.594 122.024 122.594 123.752ZM117.954 122.472C117.933 121.32 117.517 120.403 116.706 119.72C115.896 119.016 114.904 118.664 113.73 118.664C112.621 118.664 111.682 119.005 110.914 119.688C110.168 120.349 109.709 121.277 109.538 122.472H117.954ZM130.344 117.832C130.92 117.021 131.71 116.349 132.712 115.816C133.736 115.261 134.899 114.984 136.2 114.984C137.715 114.984 139.08 115.357 140.296 116.104C141.534 116.851 142.504 117.917 143.208 119.304C143.934 120.669 144.296 122.259 144.296 124.072C144.296 125.885 143.934 127.496 143.208 128.904C142.504 130.291 141.534 131.368 140.296 132.136C139.08 132.904 137.715 133.288 136.2 133.288C134.899 133.288 133.747 133.021 132.744 132.488C131.763 131.955 130.963 131.283 130.344 130.472V141.448H125.864V115.272H130.344V117.832ZM139.72 124.072C139.72 123.005 139.496 122.088 139.048 121.32C138.622 120.531 138.046 119.933 137.32 119.528C136.616 119.123 135.848 118.92 135.016 118.92C134.206 118.92 133.438 119.133 132.712 119.56C132.008 119.965 131.432 120.563 130.984 121.352C130.558 122.141 130.344 123.069 130.344 124.136C130.344 125.203 130.558 126.131 130.984 126.92C131.432 127.709 132.008 128.317 132.712 128.744C133.438 129.149 134.206 129.352 135.016 129.352C135.848 129.352 136.616 129.139 137.32 128.712C138.046 128.285 138.622 127.677 139.048 126.888C139.496 126.099 139.72 125.16 139.72 124.072ZM154.121 113.8V109.672H161.833V133H157.225V113.8H154.121ZM168.755 133.224C167.944 133.224 167.272 132.979 166.739 132.488C166.227 131.976 165.971 131.347 165.971 130.6C165.971 129.853 166.227 129.235 166.739 128.744C167.272 128.232 167.944 127.976 168.755 127.976C169.544 127.976 170.195 128.232 170.707 128.744C171.219 129.235 171.475 129.853 171.475 130.6C171.475 131.347 171.219 131.976 170.707 132.488C170.195 132.979 169.544 133.224 168.755 133.224ZM168.755 119.976C167.944 119.976 167.272 119.731 166.739 119.24C166.227 118.728 165.971 118.099 165.971 117.352C165.971 116.605 166.227 115.987 166.739 115.496C167.272 114.984 167.944 114.728 168.755 114.728C169.544 114.728 170.195 114.984 170.707 115.496C171.219 115.987 171.475 116.605 171.475 117.352C171.475 118.099 171.219 118.728 170.707 119.24C170.195 119.731 169.544 119.976 168.755 119.976Z" fill="white"/>
<path d="M206.728 134L201.8 125.296H199.688V134H195.208V111.664H203.592C205.32 111.664 206.792 111.973 208.008 112.592C209.224 113.189 210.131 114.011 210.728 115.056C211.347 116.08 211.656 117.232 211.656 118.512C211.656 119.984 211.229 121.317 210.376 122.512C209.523 123.685 208.253 124.496 206.568 124.944L211.912 134H206.728ZM199.688 121.936H203.432C204.648 121.936 205.555 121.648 206.152 121.072C206.749 120.475 207.048 119.653 207.048 118.608C207.048 117.584 206.749 116.795 206.152 116.24C205.555 115.664 204.648 115.376 203.432 115.376H199.688V121.936ZM232.668 116.272L221.692 142.384H216.924L220.764 133.552L213.66 116.272H218.684L223.26 128.656L227.9 116.272H232.668ZM233.931 125.072C233.931 123.28 234.283 121.691 234.987 120.304C235.712 118.917 236.694 117.851 237.931 117.104C239.168 116.357 240.544 115.984 242.059 115.984C243.211 115.984 244.31 116.24 245.355 116.752C246.4 117.243 247.232 117.904 247.851 118.736V110.32H252.395V134H247.851V131.376C247.296 132.251 246.518 132.955 245.515 133.488C244.512 134.021 243.35 134.288 242.027 134.288C240.534 134.288 239.168 133.904 237.931 133.136C236.694 132.368 235.712 131.291 234.987 129.904C234.283 128.496 233.931 126.885 233.931 125.072ZM247.883 125.136C247.883 124.048 247.67 123.12 247.243 122.352C246.816 121.563 246.24 120.965 245.515 120.56C244.79 120.133 244.011 119.92 243.179 119.92C242.347 119.92 241.579 120.123 240.875 120.528C240.171 120.933 239.595 121.531 239.147 122.32C238.72 123.088 238.507 124.005 238.507 125.072C238.507 126.139 238.72 127.077 239.147 127.888C239.595 128.677 240.171 129.285 240.875 129.712C241.6 130.139 242.368 130.352 243.179 130.352C244.011 130.352 244.79 130.149 245.515 129.744C246.24 129.317 246.816 128.72 247.243 127.952C247.67 127.163 247.883 126.224 247.883 125.136ZM272.268 134.288C270.561 134.288 269.025 133.915 267.66 133.168C266.294 132.4 265.217 131.323 264.428 129.936C263.66 128.549 263.276 126.949 263.276 125.136C263.276 123.323 263.67 121.723 264.46 120.336C265.27 118.949 266.369 117.883 267.756 117.136C269.142 116.368 270.689 115.984 272.396 115.984C274.102 115.984 275.649 116.368 277.036 117.136C278.422 117.883 279.51 118.949 280.3 120.336C281.11 121.723 281.516 123.323 281.516 125.136C281.516 126.949 281.1 128.549 280.267 129.936C279.457 131.323 278.348 132.4 276.94 133.168C275.553 133.915 273.996 134.288 272.268 134.288ZM272.268 130.384C273.078 130.384 273.836 130.192 274.54 129.808C275.265 129.403 275.841 128.805 276.268 128.016C276.694 127.227 276.908 126.267 276.908 125.136C276.908 123.451 276.46 122.16 275.564 121.264C274.689 120.347 273.612 119.888 272.332 119.888C271.052 119.888 269.974 120.347 269.1 121.264C268.246 122.16 267.82 123.451 267.82 125.136C267.82 126.821 268.236 128.123 269.068 129.04C269.921 129.936 270.988 130.384 272.268 130.384ZM289.282 118.832C289.858 118.021 290.647 117.349 291.65 116.816C292.674 116.261 293.836 115.984 295.138 115.984C296.652 115.984 298.018 116.357 299.234 117.104C300.471 117.851 301.442 118.917 302.146 120.304C302.871 121.669 303.234 123.259 303.234 125.072C303.234 126.885 302.871 128.496 302.146 129.904C301.442 131.291 300.471 132.368 299.234 133.136C298.018 133.904 296.652 134.288 295.138 134.288C293.836 134.288 292.684 134.021 291.682 133.488C290.7 132.955 289.9 132.283 289.282 131.472V142.448H284.802V116.272H289.282V118.832ZM298.658 125.072C298.658 124.005 298.434 123.088 297.986 122.32C297.559 121.531 296.983 120.933 296.258 120.528C295.554 120.123 294.786 119.92 293.954 119.92C293.143 119.92 292.375 120.133 291.65 120.56C290.946 120.965 290.37 121.563 289.922 122.352C289.495 123.141 289.282 124.069 289.282 125.136C289.282 126.203 289.495 127.131 289.922 127.92C290.37 128.709 290.946 129.317 291.65 129.744C292.375 130.149 293.143 130.352 293.954 130.352C294.786 130.352 295.554 130.139 296.258 129.712C296.983 129.285 297.559 128.677 297.986 127.888C298.434 127.099 298.658 126.16 298.658 125.072ZM318.594 118.832C319.17 118.021 319.96 117.349 320.962 116.816C321.986 116.261 323.149 115.984 324.45 115.984C325.965 115.984 327.33 116.357 328.546 117.104C329.784 117.851 330.754 118.917 331.458 120.304C332.184 121.669 332.546 123.259 332.546 125.072C332.546 126.885 332.184 128.496 331.458 129.904C330.754 131.291 329.784 132.368 328.546 133.136C327.33 133.904 325.965 134.288 324.45 134.288C323.149 134.288 321.997 134.021 320.994 133.488C320.013 132.955 319.213 132.283 318.594 131.472V142.448H314.114V116.272H318.594V118.832ZM327.97 125.072C327.97 124.005 327.746 123.088 327.298 122.32C326.872 121.531 326.296 120.933 325.57 120.528C324.866 120.123 324.098 119.92 323.266 119.92C322.456 119.92 321.688 120.133 320.962 120.56C320.258 120.965 319.682 121.563 319.234 122.352C318.808 123.141 318.594 124.069 318.594 125.136C318.594 126.203 318.808 127.131 319.234 127.92C319.682 128.709 320.258 129.317 320.962 129.744C321.688 130.149 322.456 130.352 323.266 130.352C324.098 130.352 324.866 130.139 325.57 129.712C326.296 129.285 326.872 128.677 327.298 127.888C327.746 127.099 327.97 126.16 327.97 125.072ZM334.65 125.072C334.65 123.28 335.002 121.691 335.706 120.304C336.431 118.917 337.402 117.851 338.618 117.104C339.855 116.357 341.231 115.984 342.746 115.984C344.068 115.984 345.22 116.251 346.202 116.784C347.204 117.317 348.004 117.989 348.602 118.8V116.272H353.114V134H348.602V131.408C348.026 132.24 347.226 132.933 346.202 133.488C345.199 134.021 344.036 134.288 342.714 134.288C341.22 134.288 339.855 133.904 338.618 133.136C337.402 132.368 336.431 131.291 335.706 129.904C335.002 128.496 334.65 126.885 334.65 125.072ZM348.602 125.136C348.602 124.048 348.388 123.12 347.962 122.352C347.535 121.563 346.959 120.965 346.234 120.56C345.508 120.133 344.73 119.92 343.898 119.92C343.066 119.92 342.298 120.123 341.594 120.528C340.89 120.933 340.314 121.531 339.866 122.32C339.439 123.088 339.226 124.005 339.226 125.072C339.226 126.139 339.439 127.077 339.866 127.888C340.314 128.677 340.89 129.285 341.594 129.712C342.319 130.139 343.087 130.352 343.898 130.352C344.73 130.352 345.508 130.149 346.234 129.744C346.959 129.317 347.535 128.72 347.962 127.952C348.388 127.163 348.602 126.224 348.602 125.136ZM348.25 111.056C348.25 112.165 347.887 113.061 347.162 113.744C346.458 114.405 345.572 114.736 344.506 114.736C343.46 114.736 342.575 114.405 341.85 113.744C341.124 113.061 340.762 112.165 340.762 111.056C340.762 109.947 341.124 109.061 341.85 108.4C342.575 107.717 343.46 107.376 344.506 107.376C345.572 107.376 346.458 107.717 347.162 108.4C347.887 109.061 348.25 109.947 348.25 111.056ZM346.042 111.056C346.042 110.565 345.892 110.181 345.594 109.904C345.295 109.605 344.932 109.456 344.506 109.456C344.079 109.456 343.716 109.605 343.418 109.904C343.119 110.181 342.97 110.565 342.97 111.056C342.97 111.504 343.119 111.888 343.418 112.208C343.716 112.507 344.079 112.656 344.506 112.656C344.932 112.656 345.295 112.507 345.594 112.208C345.892 111.888 346.042 111.504 346.042 111.056ZM363.962 125.072C363.962 123.28 364.314 121.691 365.018 120.304C365.744 118.917 366.725 117.851 367.962 117.104C369.2 116.357 370.576 115.984 372.09 115.984C373.242 115.984 374.341 116.24 375.386 116.752C376.432 117.243 377.264 117.904 377.882 118.736V110.32H382.426V134H377.882V131.376C377.328 132.251 376.549 132.955 375.546 133.488C374.544 134.021 373.381 134.288 372.058 134.288C370.565 134.288 369.2 133.904 367.962 133.136C366.725 132.368 365.744 131.291 365.018 129.904C364.314 128.496 363.962 126.885 363.962 125.072ZM377.914 125.136C377.914 124.048 377.701 123.12 377.274 122.352C376.848 121.563 376.272 120.965 375.546 120.56C374.821 120.133 374.042 119.92 373.21 119.92C372.378 119.92 371.61 120.123 370.906 120.528C370.202 120.933 369.626 121.531 369.178 122.32C368.752 123.088 368.538 124.005 368.538 125.072C368.538 126.139 368.752 127.077 369.178 127.888C369.626 128.677 370.202 129.285 370.906 129.712C371.632 130.139 372.4 130.352 373.21 130.352C374.042 130.352 374.821 130.149 375.546 129.744C376.272 129.317 376.848 128.72 377.274 127.952C377.701 127.163 377.914 126.224 377.914 125.136ZM389.074 114.16C388.284 114.16 387.623 113.915 387.09 113.424C386.578 112.912 386.322 112.283 386.322 111.536C386.322 110.789 386.578 110.171 387.09 109.68C387.623 109.168 388.284 108.912 389.074 108.912C389.863 108.912 390.514 109.168 391.026 109.68C391.559 110.171 391.826 110.789 391.826 111.536C391.826 112.283 391.559 112.912 391.026 113.424C390.514 113.915 389.863 114.16 389.074 114.16ZM391.282 116.272V134H386.802V116.272H391.282ZM405.532 116.016C407.644 116.016 409.351 116.688 410.652 118.032C411.953 119.355 412.604 121.211 412.604 123.6V134H408.124V124.208C408.124 122.8 407.772 121.723 407.068 120.976C406.364 120.208 405.404 119.824 404.188 119.824C402.951 119.824 401.969 120.208 401.244 120.976C400.54 121.723 400.188 122.8 400.188 124.208V134H395.708V116.272H400.188V118.48C400.785 117.712 401.543 117.115 402.46 116.688C403.399 116.24 404.423 116.016 405.532 116.016ZM431.273 134.288C429.823 134.288 428.521 134.032 427.369 133.52C426.217 132.987 425.3 132.272 424.617 131.376C423.956 130.48 423.593 129.488 423.529 128.4H428.041C428.127 129.083 428.457 129.648 429.033 130.096C429.631 130.544 430.367 130.768 431.241 130.768C432.095 130.768 432.756 130.597 433.225 130.256C433.716 129.915 433.961 129.477 433.961 128.944C433.961 128.368 433.663 127.941 433.065 127.664C432.489 127.365 431.561 127.045 430.281 126.704C428.959 126.384 427.871 126.053 427.017 125.712C426.185 125.371 425.46 124.848 424.841 124.144C424.244 123.44 423.945 122.491 423.945 121.296C423.945 120.315 424.223 119.419 424.777 118.608C425.353 117.797 426.164 117.157 427.209 116.688C428.276 116.219 429.524 115.984 430.953 115.984C433.065 115.984 434.751 116.517 436.009 117.584C437.268 118.629 437.961 120.048 438.089 121.84H433.801C433.737 121.136 433.439 120.581 432.905 120.176C432.393 119.749 431.7 119.536 430.825 119.536C430.015 119.536 429.385 119.685 428.937 119.984C428.511 120.283 428.297 120.699 428.297 121.232C428.297 121.829 428.596 122.288 429.193 122.608C429.791 122.907 430.719 123.216 431.977 123.536C433.257 123.856 434.313 124.187 435.145 124.528C435.977 124.869 436.692 125.403 437.289 126.128C437.908 126.832 438.228 127.771 438.249 128.944C438.249 129.968 437.961 130.885 437.385 131.696C436.831 132.507 436.02 133.147 434.953 133.616C433.908 134.064 432.681 134.288 431.273 134.288ZM463.943 116.016C466.119 116.016 467.868 116.688 469.191 118.032C470.535 119.355 471.207 121.211 471.207 123.6V134H466.727V124.208C466.727 122.821 466.375 121.765 465.671 121.04C464.967 120.293 464.007 119.92 462.791 119.92C461.575 119.92 460.604 120.293 459.879 121.04C459.175 121.765 458.823 122.821 458.823 124.208V134H454.343V124.208C454.343 122.821 453.991 121.765 453.287 121.04C452.583 120.293 451.623 119.92 450.407 119.92C449.169 119.92 448.188 120.293 447.463 121.04C446.759 121.765 446.407 122.821 446.407 124.208V134H441.927V116.272H446.407V118.416C446.983 117.669 447.719 117.083 448.615 116.656C449.532 116.229 450.535 116.016 451.623 116.016C453.009 116.016 454.247 116.315 455.335 116.912C456.423 117.488 457.265 118.32 457.863 119.408C458.439 118.384 459.271 117.563 460.359 116.944C461.468 116.325 462.663 116.016 463.943 116.016ZM474.306 125.072C474.306 123.28 474.658 121.691 475.362 120.304C476.087 118.917 477.058 117.851 478.274 117.104C479.511 116.357 480.887 115.984 482.402 115.984C483.725 115.984 484.877 116.251 485.858 116.784C486.861 117.317 487.661 117.989 488.258 118.8V116.272H492.77V134H488.258V131.408C487.682 132.24 486.882 132.933 485.858 133.488C484.855 134.021 483.693 134.288 482.37 134.288C480.877 134.288 479.511 133.904 478.274 133.136C477.058 132.368 476.087 131.291 475.362 129.904C474.658 128.496 474.306 126.885 474.306 125.072ZM488.258 125.136C488.258 124.048 488.045 123.12 487.618 122.352C487.191 121.563 486.615 120.965 485.89 120.56C485.165 120.133 484.386 119.92 483.554 119.92C482.722 119.92 481.954 120.123 481.25 120.528C480.546 120.933 479.97 121.531 479.522 122.32C479.095 123.088 478.882 124.005 478.882 125.072C478.882 126.139 479.095 127.077 479.522 127.888C479.97 128.677 480.546 129.285 481.25 129.712C481.975 130.139 482.743 130.352 483.554 130.352C484.386 130.352 485.165 130.149 485.89 129.744C486.615 129.317 487.191 128.72 487.618 127.952C488.045 127.163 488.258 126.224 488.258 125.136ZM501.626 119.024C502.202 118.085 502.948 117.349 503.866 116.816C504.804 116.283 505.871 116.016 507.066 116.016V120.72H505.882C504.474 120.72 503.407 121.051 502.682 121.712C501.978 122.373 501.626 123.525 501.626 125.168V134H497.146V116.272H501.626V119.024ZM515.299 119.952V128.528C515.299 129.125 515.438 129.563 515.715 129.84C516.014 130.096 516.504 130.224 517.187 130.224H519.267V134H516.451C512.675 134 510.787 132.165 510.787 128.496V119.952H508.675V116.272H510.787V111.888H515.299V116.272H519.267V119.952H515.299ZM526.969 118.832C527.545 118.021 528.335 117.349 529.337 116.816C530.361 116.261 531.524 115.984 532.825 115.984C534.34 115.984 535.705 116.357 536.921 117.104C538.159 117.851 539.129 118.917 539.833 120.304C540.559 121.669 540.921 123.259 540.921 125.072C540.921 126.885 540.559 128.496 539.833 129.904C539.129 131.291 538.159 132.368 536.921 133.136C535.705 133.904 534.34 134.288 532.825 134.288C531.524 134.288 530.372 134.021 529.369 133.488C528.388 132.955 527.588 132.283 526.969 131.472V142.448H522.489V116.272H526.969V118.832ZM536.345 125.072C536.345 124.005 536.121 123.088 535.673 122.32C535.247 121.531 534.671 120.933 533.945 120.528C533.241 120.123 532.473 119.92 531.641 119.92C530.831 119.92 530.063 120.133 529.337 120.56C528.633 120.965 528.057 121.563 527.609 122.352C527.183 123.141 526.969 124.069 526.969 125.136C526.969 126.203 527.183 127.131 527.609 127.92C528.057 128.709 528.633 129.317 529.337 129.744C530.063 130.149 530.831 130.352 531.641 130.352C532.473 130.352 533.241 130.139 533.945 129.712C534.671 129.285 535.247 128.677 535.673 127.888C536.121 127.099 536.345 126.16 536.345 125.072ZM554.161 116.016C555.505 116.016 556.699 116.315 557.745 116.912C558.79 117.488 559.601 118.352 560.177 119.504C560.774 120.635 561.073 122 561.073 123.6V134H556.593V124.208C556.593 122.8 556.241 121.723 555.537 120.976C554.833 120.208 553.873 119.824 552.657 119.824C551.419 119.824 550.438 120.208 549.713 120.976C549.009 121.723 548.657 122.8 548.657 124.208V134H544.177V110.32H548.657V118.48C549.233 117.712 550.001 117.115 550.961 116.688C551.921 116.24 552.987 116.016 554.161 116.016ZM573.205 134.288C571.498 134.288 569.962 133.915 568.597 133.168C567.232 132.4 566.154 131.323 565.365 129.936C564.597 128.549 564.213 126.949 564.213 125.136C564.213 123.323 564.608 121.723 565.397 120.336C566.208 118.949 567.306 117.883 568.693 117.136C570.08 116.368 571.626 115.984 573.333 115.984C575.04 115.984 576.586 116.368 577.973 117.136C579.36 117.883 580.448 118.949 581.237 120.336C582.048 121.723 582.453 123.323 582.453 125.136C582.453 126.949 582.037 128.549 581.205 129.936C580.394 131.323 579.285 132.4 577.877 133.168C576.49 133.915 574.933 134.288 573.205 134.288ZM573.205 130.384C574.016 130.384 574.773 130.192 575.477 129.808C576.202 129.403 576.778 128.805 577.205 128.016C577.632 127.227 577.845 126.267 577.845 125.136C577.845 123.451 577.397 122.16 576.501 121.264C575.626 120.347 574.549 119.888 573.269 119.888C571.989 119.888 570.912 120.347 570.037 121.264C569.184 122.16 568.757 123.451 568.757 125.136C568.757 126.821 569.173 128.123 570.005 129.04C570.858 129.936 571.925 130.384 573.205 130.384ZM595.563 116.016C597.675 116.016 599.382 116.688 600.683 118.032C601.985 119.355 602.635 121.211 602.635 123.6V134H598.155V124.208C598.155 122.8 597.803 121.723 597.099 120.976C596.395 120.208 595.435 119.824 594.219 119.824C592.982 119.824 592.001 120.208 591.275 120.976C590.571 121.723 590.219 122.8 590.219 124.208V134H585.739V116.272H590.219V118.48C590.817 117.712 591.574 117.115 592.491 116.688C593.43 116.24 594.454 116.016 595.563 116.016ZM623.376 124.752C623.376 125.392 623.333 125.968 623.248 126.48H610.288C610.394 127.76 610.842 128.763 611.632 129.488C612.421 130.213 613.392 130.576 614.544 130.576C616.208 130.576 617.392 129.861 618.096 128.432H622.928C622.416 130.139 621.434 131.547 619.984 132.656C618.533 133.744 616.752 134.288 614.64 134.288C612.933 134.288 611.397 133.915 610.032 133.168C608.688 132.4 607.632 131.323 606.864 129.936C606.117 128.549 605.743 126.949 605.743 125.136C605.743 123.301 606.117 121.691 606.864 120.304C607.61 118.917 608.656 117.851 610 117.104C611.344 116.357 612.89 115.984 614.64 115.984C616.325 115.984 617.829 116.347 619.152 117.072C620.496 117.797 621.53 118.832 622.256 120.176C623.002 121.499 623.376 123.024 623.376 124.752ZM618.736 123.472C618.714 122.32 618.298 121.403 617.488 120.72C616.677 120.016 615.685 119.664 614.512 119.664C613.402 119.664 612.464 120.005 611.696 120.688C610.949 121.349 610.49 122.277 610.32 123.472H618.736Z" fill="black"/>
</svg>
