<?xml version="1.0" encoding="UTF-8"?><svg id="Layer_2" xmlns="http://www.w3.org/2000/svg" width="297" height="576.74" viewBox="0 0 297 576.74"><defs><style>.cls-1,.cls-2,.cls-3,.cls-4,.cls-5,.cls-6,.cls-7,.cls-8,.cls-9{stroke-width:0px;}.cls-2{fill:gray;}.cls-3{fill:#1a1a1a;}.cls-4{fill:#205e96;}.cls-5{fill:#666;}.cls-6{fill:#989898;}.cls-7{fill:#fea200;}.cls-8{fill:#feafcd;}.cls-9{fill:#fff;}</style></defs><g id="Layer_1-2"><rect class="cls-6" x="80.39" y="7.22" width="85" height="85" rx="12" ry="12" transform="translate(-8.94 35.75) rotate(-15.98)"/><rect class="cls-3" x="93.8" y="28.15" width="59.76" height="45.91" rx="12" ry="12" transform="translate(-9.29 36.02) rotate(-15.98)"/><path class="cls-3" d="M111.96,37.83c.79-1.2,1.33-3.33,2.34-4.29s3.24-1.12,4.48-1.46c2.16-.59,2.67-.79,4.64.19,1.53.76,2.98,1.49,4.58,2.12,6.23,2.43,8.73-7.67,2.57-10.07-2.58-1.01-4.55-2.66-7.36-3.14-3.04-.52-5.95.53-8.84,1.36-2.44.7-4.92,1.36-6.85,3.1-2.21,1.99-3.06,4.75-4.66,7.17-3.69,5.59,5.42,10.6,9.09,5.04h0Z"/><rect class="cls-7" x="130.75" y="29.73" width="3.46" height="3.46" rx="1.73" ry="1.73" transform="translate(-3.54 37.68) rotate(-15.98)"/><path class="cls-3" d="M133.09,33.61c-1.18.34-2.42-.35-2.76-1.53s.35-2.42,1.53-2.76,2.42.35,2.76,1.53-.35,2.42-1.53,2.76ZM132.14,30.28c-.65.19-1.03.87-.85,1.52s.87,1.03,1.52.85,1.03-.87.84-1.52-.87-1.03-1.52-.85Z"/><path class="cls-5" d="M127.34,62.28c-6,1.72-12.29-1.77-14.01-7.77s1.77-12.29,7.77-14.01,12.29,1.77,14.01,7.77c1.72,6-1.77,12.29-7.77,14.01ZM121.38,41.47c-5.47,1.57-8.65,7.3-7.08,12.77,1.57,5.47,7.3,8.65,12.77,7.09,5.47-1.57,8.65-7.3,7.09-12.77-1.57-5.47-7.3-8.65-12.77-7.08Z"/><rect class="cls-4" x="3.35" y="105.93" width="44.26" height="44.26" rx="11.58" ry="11.58" transform="translate(-49.18 20.94) rotate(-23.62)"/><path class="cls-9" d="M29.14,116.99c1.56.09,2.94.56,4.14,1.43,1.2.87,2.13,2.06,2.8,3.59.54,1.23.83,2.48.86,3.72.04,1.25-.23,2.37-.79,3.37-.56,1-1.41,1.75-2.56,2.25-.77.34-1.47.46-2.11.38-.63-.09-1.16-.37-1.57-.84-.16.74-.49,1.41-.99,2-.5.59-1.13,1.05-1.89,1.38-1.07.47-2.06.52-2.96.14-.9-.38-1.59-1.12-2.08-2.24-.46-1.06-.68-2.15-.66-3.28s.3-2.14.82-3.04c.52-.9,1.26-1.56,2.22-1.98,1.22-.53,2.24-.46,3.05.22l-.31-1.24,3.01-1.31,1.43,5.89c.07.28.15.52.24.73.28.64.7.83,1.27.59.7-.3,1.04-.98,1.02-2.04-.02-1.05-.28-2.16-.79-3.32-.73-1.67-1.83-2.75-3.29-3.23-1.47-.48-3.15-.31-5.05.52-1.63.71-2.93,1.75-3.92,3.11-.99,1.37-1.56,2.89-1.72,4.58-.16,1.69.11,3.34.82,4.97.77,1.76,1.88,2.9,3.33,3.42s3.1.38,4.94-.42c1.44-.63,2.61-1.45,3.51-2.47l1.63,2.12c-1.15,1.25-2.61,2.26-4.38,3.03-1.66.72-3.25,1.04-4.79.95-1.54-.09-2.9-.57-4.1-1.45-1.2-.88-2.14-2.1-2.82-3.67-.96-2.19-1.31-4.4-1.06-6.63.25-2.23,1.06-4.24,2.43-6.04,1.37-1.8,3.17-3.19,5.4-4.17,1.71-.75,3.35-1.08,4.91-.99ZM28.07,130.18c.25-.4.39-.86.42-1.36.03-.51-.06-1-.27-1.48s-.53-.84-.94-1.03c-.41-.19-.86-.18-1.34.03-.64.28-1.05.79-1.23,1.52-.18.74-.1,1.48.23,2.24.21.48.5.81.88.99.37.18.8.17,1.28-.04.41-.18.73-.47.98-.87Z"/><rect class="cls-6" x="52.09" y="120.24" width="54" height="82" rx="6.69" ry="6.69" transform="translate(-41.33 28) rotate(-15.98)"/><rect class="cls-1" x="58.27" y="129.35" width="40" height="58" rx="3.6" ry="3.6" transform="translate(-40.57 27.66) rotate(-15.98)"/><circle class="cls-5" cx="69.18" cy="126.63" r="1"/><circle class="cls-5" cx="88.17" cy="192.96" r="4"/><circle class="cls-2" cx="88.17" cy="192.96" r="3"/><rect class="cls-7" x="87.41" y="141.76" width="103.97" height="62.03" rx="4.91" ry="4.91"/><rect class="cls-1" x="135.36" y="157.48" width="58.74" height=".87" transform="translate(-57.26 105.06) rotate(-30.4)"/><rect class="cls-1" x="113.67" y="128.29" width=".87" height="58.74" transform="translate(-79.61 176.37) rotate(-59.62)"/><rect class="cls-1" x="167.35" y="158" width=".87" height="55.76" transform="translate(-80.94 214.82) rotate(-54.57)"/><rect class="cls-1" x="82.46" y="184.25" width="55.76" height=".87" transform="translate(-86.67 98.27) rotate(-35.46)"/><rect class="cls-6" x="172.09" y="133.24" width="85" height="85" rx="12" ry="12" transform="translate(34.68 -35.37) rotate(10.25)"/><rect class="cls-3" x="184.81" y="154.37" width="59.76" height="45.91" rx="12" ry="12" transform="translate(34.96 -35.36) rotate(10.25)"/><path class="cls-3" d="M210.04,160.24c1.24-.72,2.67-2.4,3.99-2.82s3.4.43,4.67.67c2.2.42,2.74.47,4.08,2.22,1.04,1.36,2.02,2.66,3.18,3.92,4.51,4.93,11.22-3.02,6.76-7.9-1.87-2.04-2.9-4.4-5.21-6.07-2.49-1.81-5.58-2.15-8.53-2.69-2.5-.45-5.01-.95-7.52-.25-2.86.81-4.85,2.91-7.35,4.37-5.78,3.38.18,11.9,5.93,8.54h0Z"/><rect class="cls-7" x="229.52" y="161.86" width="3.46" height="3.46" rx="1.73" ry="1.73" transform="translate(32.79 -38.52) rotate(10.25)"/><path class="cls-3" d="M230.86,165.79c-1.21-.22-2.02-1.38-1.8-2.59s1.38-2.02,2.59-1.8,2.02,1.38,1.8,2.59-1.38,2.02-2.59,1.8ZM231.48,162.38c-.67-.12-1.31.32-1.43.99s.32,1.31.99,1.43,1.31-.32,1.43-.99-.32-1.31-.99-1.43Z"/><path class="cls-5" d="M213.03,188.98c-6.15-1.11-10.24-7.01-9.13-13.16,1.11-6.15,7.01-10.24,13.16-9.13s10.24,7.01,9.13,13.16c-1.11,6.15-7.01,10.24-13.16,9.13ZM216.88,167.67c-5.6-1.01-10.99,2.72-12,8.33-1.01,5.6,2.72,10.99,8.32,12s10.99-2.72,12-8.33-2.72-10.99-8.33-12Z"/><rect class="cls-8" x="163.1" y="197.4" width="119" height="71" rx="4.91" ry="4.91" transform="translate(-82.26 128.72) rotate(-27.43)"/><rect class="cls-1" x="206.9" y="203.95" width="67.23" height="1" transform="translate(-60.62 299.16) rotate(-57.82)"/><rect class="cls-1" x="188.45" y="197.25" width="1" height="67.23" transform="translate(-51.34 407.68) rotate(-87.05)"/><rect class="cls-1" x="257.86" y="199.33" width="1" height="63.82" transform="translate(-6.61 454.88) rotate(-81.99)"/><rect class="cls-1" x="167.46" y="259.82" width="63.82" height="1" transform="translate(-123.2 319.14) rotate(-62.89)"/><rect class="cls-9" x="46.59" y="192.75" width="119" height="71" rx="4.91" ry="4.91" transform="translate(144.23 -20.54) rotate(33.65)"/><rect class="cls-1" x="139.15" y="196.55" width="1" height="67.23" transform="translate(-98.06 356.54) rotate(-86.75)"/><rect class="cls-1" x="91.09" y="164.2" width="1" height="67.23" transform="translate(-77.39 60.1) rotate(-25.98)"/><rect class="cls-1" x="124.33" y="226.83" width="1" height="63.82" transform="translate(-84.16 61.63) rotate(-20.92)"/><rect class="cls-1" x="38.94" y="220.67" width="63.82" height="1" transform="translate(-6.97 2.35) rotate(-1.81)"/><rect class="cls-4" x="123.09" y="184.24" width="84" height="84" rx="11.58" ry="11.58" transform="translate(-26.34 21.8) rotate(-7)"/><path class="cls-9" d="M177.76,208.09c2.79,1.01,5.04,2.62,6.75,4.85,1.71,2.23,2.76,4.91,3.15,8.05.31,2.54.16,4.95-.45,7.24-.61,2.29-1.7,4.19-3.26,5.69-1.56,1.51-3.51,2.41-5.87,2.7-1.58.19-2.93.04-4.03-.46-1.11-.5-1.91-1.3-2.41-2.39-.69,1.27-1.66,2.3-2.89,3.11-1.23.8-2.63,1.3-4.18,1.49-2.21.27-4.03-.18-5.46-1.35-1.43-1.17-2.29-2.91-2.57-5.21-.27-2.18-.07-4.29.59-6.32s1.71-3.73,3.15-5.09c1.44-1.36,3.14-2.16,5.11-2.4,2.51-.31,4.32.38,5.43,2.06l.11-2.42,6.18-.76-.59,11.48c-.02.55-.01,1.03.04,1.45.16,1.31.82,1.9,1.99,1.76,1.43-.18,2.42-1.23,2.95-3.16.54-1.93.66-4.09.36-6.48-.42-3.43-1.83-5.99-4.24-7.66-2.4-1.67-5.56-2.27-9.47-1.79-3.34.41-6.28,1.59-8.82,3.54-2.53,1.95-4.41,4.41-5.62,7.39-1.21,2.98-1.61,6.14-1.2,9.49.44,3.61,1.84,6.29,4.19,8.03s5.42,2.38,9.21,1.91c2.96-.36,5.53-1.22,7.73-2.59l1.81,4.73c-2.77,1.64-5.97,2.69-9.61,3.13-3.4.42-6.48.13-9.22-.87-2.74-1-4.97-2.62-6.66-4.86-1.7-2.25-2.75-4.98-3.14-8.2-.55-4.51,0-8.72,1.68-12.64,1.67-3.92,4.24-7.14,7.7-9.67,3.46-2.53,7.49-4.08,12.09-4.64,3.52-.43,6.68-.15,9.47.86ZM168.66,231.5c.67-.6,1.17-1.35,1.5-2.25.33-.9.43-1.85.31-2.83s-.51-1.81-1.16-2.38c-.65-.57-1.46-.8-2.45-.68-1.31.16-2.33.86-3.06,2.1-.73,1.24-.99,2.64-.8,4.19.12.99.47,1.75,1.05,2.28.58.54,1.36.74,2.35.62.83-.1,1.59-.45,2.26-1.05Z"/><polygon class="cls-3" points="32.59 245.74 32.59 260.74 49.59 260.74 80.59 576.74 243.59 576.74 270.59 260.74 289.59 260.74 289.59 245.74 32.59 245.74"/><rect class="cls-4" x="212.83" y="43.94" width="44.26" height="44.26" rx="11.58" ry="11.58" transform="translate(31.23 -68.34) rotate(17.71)"/><path class="cls-9" d="M245.02,60.17c1.11,1.1,1.84,2.37,2.16,3.81.33,1.44.24,2.96-.27,4.54-.41,1.28-1.01,2.4-1.81,3.36-.8.96-1.73,1.63-2.81,2.01-1.08.38-2.21.38-3.41,0-.8-.26-1.41-.62-1.83-1.11-.42-.48-.63-1.04-.63-1.67-.61.45-1.3.74-2.07.85-.77.11-1.54.04-2.33-.21-1.12-.36-1.89-.97-2.32-1.85-.43-.88-.45-1.9-.08-3.06.35-1.1.91-2.07,1.67-2.9s1.64-1.41,2.63-1.74c.99-.33,1.98-.34,2.98-.02,1.27.4,1.98,1.13,2.15,2.18l.59-1.14,3.13,1-2.81,5.37c-.13.26-.23.49-.3.7-.21.66-.02,1.09.57,1.28.72.23,1.43-.06,2.11-.86.68-.81,1.21-1.81,1.6-3.02.55-1.74.44-3.27-.34-4.6-.78-1.33-2.16-2.31-4.14-2.94-1.69-.54-3.36-.62-5-.25-1.64.37-3.08,1.14-4.32,2.3-1.24,1.16-2.12,2.59-2.66,4.28-.58,1.83-.5,3.42.24,4.77s2.07,2.33,3.99,2.94c1.49.48,2.92.63,4.27.46l-.18,2.66c-1.69.18-3.45-.03-5.29-.62-1.72-.55-3.13-1.37-4.22-2.45-1.09-1.08-1.8-2.35-2.12-3.8-.32-1.45-.22-2.99.3-4.62.73-2.28,1.92-4.17,3.59-5.68,1.66-1.51,3.6-2.48,5.81-2.93,2.21-.45,4.48-.3,6.81.44,1.78.57,3.23,1.4,4.34,2.5ZM235.51,69.38c.45-.14.86-.39,1.21-.75.36-.36.61-.79.77-1.29s.15-.98-.03-1.39c-.18-.42-.52-.7-1.02-.86-.66-.21-1.31-.1-1.93.33-.62.43-1.06,1.04-1.31,1.83-.16.5-.16.94,0,1.32.16.38.49.66.99.81.42.13.86.13,1.31,0Z"/><rect class="cls-8" x="27.15" y="75.62" width="51.11" height="30.3" rx="4.91" ry="4.91" transform="translate(-22.95 18.01) rotate(-15.98)"/><polygon class="cls-1" points="52.86 90.92 52.55 90.62 72.5 69.81 72.81 70.11 52.86 90.92"/><polygon class="cls-1" points="52.64 90.84 24.7 83.75 24.8 83.34 52.75 90.43 52.64 90.84"/><polygon class="cls-1" points="80.72 97.8 54.9 88.77 55.05 88.36 80.86 97.39 80.72 97.8"/><polygon class="cls-1" points="32.18 111.09 31.84 110.82 48.97 89.5 49.3 89.76 32.18 111.09"/><rect class="cls-9" x="138.71" y="61.84" width="70.09" height="41.82" rx="4.91" ry="4.91" transform="translate(38.5 -54.16) rotate(19.88)"/><rect class="cls-1" x="173.42" y="78.85" width="39.6" height=".59" transform="translate(-11.2 36.59) rotate(-10.52)"/><rect class="cls-1" x="160.9" y="47.57" width=".59" height="39.6" transform="translate(-5.83 118.62) rotate(-39.74)"/><rect class="cls-1" x="188.45" y="78.77" width=".59" height="37.59" transform="translate(-21.98 124.75) rotate(-34.69)"/><rect class="cls-1" x="133.81" y="83.35" width="37.59" height=".59" transform="translate(-16.86 44.06) rotate(-15.58)"/><path class="cls-9" d="M106.34,301.05c2.05,1.09,3.63,2.61,4.75,4.57,1.12,1.96,1.68,4.22,1.68,6.79s-.56,4.8-1.68,6.77c-1.12,1.97-2.71,3.5-4.77,4.59s-4.45,1.63-7.16,1.63h-9.73v-25.97h9.73c2.74,0,5.13.54,7.18,1.63ZM104.34,317.96c1.33-1.31,2-3.16,2-5.55s-.67-4.26-2-5.59c-1.33-1.33-3.19-2-5.59-2h-3v15.1h3c2.39,0,4.25-.65,5.59-1.96Z"/><path class="cls-9" d="M116.79,301.63c-.7-.65-1.05-1.46-1.05-2.42s.35-1.81,1.05-2.46c.7-.65,1.61-.98,2.72-.98s1.98.33,2.68.98c.7.65,1.05,1.47,1.05,2.46s-.35,1.77-1.05,2.42c-.7.65-1.6.98-2.68.98s-2.02-.33-2.72-.98ZM122.66,304.75v20.65h-6.33v-20.65h6.33Z"/><path class="cls-9" d="M138.92,305.35c1.1.59,1.94,1.37,2.53,2.33v-2.92h6.33v20.61c0,1.9-.38,3.62-1.13,5.16-.75,1.54-1.9,2.77-3.44,3.68-1.54.91-3.46,1.37-5.75,1.37-3.06,0-5.54-.72-7.44-2.16-1.9-1.44-2.99-3.4-3.26-5.86h6.25c.2.79.67,1.41,1.41,1.87.74.46,1.65.68,2.74.68,1.31,0,2.35-.38,3.13-1.13.78-.75,1.17-1.96,1.17-3.61v-2.92c-.62.96-1.47,1.75-2.55,2.35-1.09.6-2.36.91-3.81.91-1.7,0-3.24-.44-4.62-1.31-1.38-.88-2.47-2.12-3.27-3.74-.8-1.62-1.2-3.48-1.2-5.61s.4-3.98,1.2-5.59,1.89-2.84,3.27-3.7c1.38-.86,2.92-1.29,4.62-1.29,1.46,0,2.73.3,3.83.89ZM140.14,311.34c-.88-.91-1.94-1.37-3.2-1.37s-2.33.45-3.2,1.35c-.88.9-1.31,2.14-1.31,3.72s.44,2.83,1.31,3.76c.88.92,1.94,1.39,3.2,1.39s2.32-.46,3.2-1.37c.88-.91,1.31-2.16,1.31-3.74s-.44-2.82-1.31-3.74Z"/><path class="cls-9" d="M152.83,301.63c-.7-.65-1.05-1.46-1.05-2.42s.35-1.81,1.05-2.46c.7-.65,1.61-.98,2.72-.98s1.98.33,2.68.98c.7.65,1.05,1.47,1.05,2.46s-.35,1.77-1.05,2.42c-.7.65-1.6.98-2.68.98s-2.02-.33-2.72-.98ZM158.69,304.75v20.65h-6.33v-20.65h6.33Z"/><path class="cls-9" d="M174.79,320.04v5.37h-3.22c-2.29,0-4.08-.56-5.37-1.68-1.28-1.12-1.92-2.95-1.92-5.49v-8.21h-2.52v-5.25h2.52v-5.03h6.33v5.03h4.14v5.25h-4.14v8.29c0,.62.15,1.06.44,1.33.3.27.79.41,1.48.41h2.26Z"/><path class="cls-9" d="M178.25,309.45c.8-1.6,1.89-2.84,3.27-3.7,1.38-.86,2.92-1.29,4.62-1.29,1.46,0,2.73.3,3.83.89,1.1.59,1.94,1.37,2.53,2.33v-2.92h6.33v20.65h-6.33v-2.92c-.62.96-1.47,1.74-2.57,2.33-1.1.59-2.38.89-3.83.89-1.68,0-3.21-.44-4.59-1.31-1.38-.88-2.47-2.12-3.27-3.74-.8-1.62-1.2-3.48-1.2-5.61s.4-3.98,1.2-5.59ZM191.2,311.34c-.88-.91-1.94-1.37-3.2-1.37s-2.33.45-3.2,1.35c-.88.9-1.31,2.14-1.31,3.72s.44,2.83,1.31,3.76c.88.92,1.94,1.39,3.2,1.39s2.32-.46,3.2-1.37c.88-.91,1.31-2.16,1.31-3.74s-.44-2.82-1.31-3.74Z"/><path class="cls-9" d="M209.75,298.02v27.38h-6.33v-27.38h6.33Z"/><path class="cls-9" d="M225.85,320.04v5.37h-3.22c-2.29,0-4.08-.56-5.37-1.68-1.28-1.12-1.92-2.95-1.92-5.49v-8.21h-2.52v-5.25h2.52v-5.03h6.33v5.03h4.14v5.25h-4.14v8.29c0,.62.15,1.06.44,1.33.3.27.79.41,1.48.41h2.26Z"/><path class="cls-9" d="M106.3,367.73c-1.5-.62-2.71-1.53-3.61-2.74s-1.38-2.66-1.42-4.37h6.73c.1.96.43,1.7,1,2.2.57.51,1.31.76,2.22.76s1.68-.22,2.22-.65c.54-.43.81-1.03.81-1.79,0-.64-.22-1.17-.65-1.59s-.96-.76-1.59-1.04c-.63-.27-1.52-.58-2.68-.93-1.68-.52-3.05-1.04-4.11-1.55s-1.97-1.28-2.74-2.29c-.77-1.01-1.15-2.33-1.15-3.96,0-2.42.88-4.31,2.63-5.68,1.75-1.37,4.03-2.05,6.84-2.05s5.17.68,6.92,2.05c1.75,1.37,2.69,3.27,2.81,5.72h-6.84c-.05-.84-.36-1.5-.93-1.98-.57-.48-1.29-.72-2.18-.72-.76,0-1.38.2-1.85.61-.47.41-.7.99-.7,1.76,0,.84.39,1.49,1.18,1.96.79.47,2.02.97,3.7,1.52,1.68.57,3.04,1.11,4.09,1.63,1.05.52,1.95,1.27,2.72,2.26.76.99,1.15,2.26,1.15,3.81s-.38,2.82-1.13,4.03c-.75,1.21-1.84,2.17-3.27,2.89-1.43.72-3.12,1.07-5.07,1.07s-3.6-.31-5.11-.92Z"/><path class="cls-9" d="M137.38,368.4l-6.29-8.66v8.66h-6.33v-27.38h6.33v15.13l6.25-8.4h7.81l-8.58,10.36,8.66,10.29h-7.84Z"/><path class="cls-9" d="M156.73,348.51c1.11-.65,2.34-.98,3.7-.98v6.7h-1.74c-1.58,0-2.76.34-3.55,1.02-.79.68-1.18,1.87-1.18,3.57v9.58h-6.33v-20.65h6.33v3.44c.74-1.13,1.67-2.03,2.78-2.68Z"/><path class="cls-9" d="M163.41,352.45c.8-1.6,1.89-2.84,3.27-3.7,1.38-.86,2.92-1.29,4.62-1.29,1.46,0,2.73.3,3.83.89,1.1.59,1.94,1.37,2.53,2.33v-2.92h6.33v20.65h-6.33v-2.92c-.62.96-1.47,1.74-2.57,2.33-1.1.59-2.38.89-3.83.89-1.68,0-3.21-.44-4.59-1.31-1.38-.88-2.47-2.12-3.27-3.74-.8-1.62-1.2-3.48-1.2-5.61s.4-3.98,1.2-5.59ZM176.36,354.34c-.88-.91-1.94-1.37-3.2-1.37s-2.33.45-3.2,1.35c-.88.9-1.31,2.14-1.31,3.72s.44,2.83,1.31,3.76c.88.92,1.94,1.39,3.2,1.39s2.32-.46,3.2-1.37c.88-.91,1.31-2.16,1.31-3.74s-.44-2.82-1.31-3.74Z"/><path class="cls-9" d="M194.92,341.02v27.38h-6.33v-27.38h6.33Z"/><path class="cls-9" d="M199.45,352.45c.8-1.6,1.89-2.84,3.27-3.7,1.38-.86,2.92-1.29,4.62-1.29,1.36,0,2.6.28,3.72.85,1.12.57,2,1.33,2.65,2.29v-9.58h6.33v27.38h-6.33v-2.96c-.59.99-1.44,1.78-2.53,2.37-1.1.59-2.38.89-3.83.89-1.7,0-3.24-.44-4.62-1.31-1.38-.88-2.47-2.12-3.27-3.74-.8-1.62-1.2-3.48-1.2-5.61s.4-3.98,1.2-5.59ZM212.4,354.34c-.88-.91-1.94-1.37-3.2-1.37s-2.33.45-3.2,1.35c-.88.9-1.31,2.14-1.31,3.72s.44,2.83,1.31,3.76c.88.92,1.94,1.39,3.2,1.39s2.32-.46,3.2-1.37c.88-.91,1.31-2.16,1.31-3.74s-.44-2.82-1.31-3.74Z"/><rect class="cls-6" x="13.8" y="290.52" width="54" height="82" rx="6.69" ry="6.69" transform="translate(-89.68 24.04) rotate(-15.98)"/><rect class="cls-1" x="19.97" y="299.64" width="40" height="58" rx="3.6" ry="3.6" transform="translate(-88.92 23.7) rotate(-15.98)"/><circle class="cls-5" cx="30.89" cy="296.91" r="1"/><circle class="cls-5" cx="49.88" cy="363.25" r="4"/><circle class="cls-2" cx="49.88" cy="363.25" r="3"/><rect class="cls-4" x="250.02" y="352.6" width="44.26" height="44.26" rx="11.58" ry="11.58" transform="translate(126.87 -65.02) rotate(17.71)"/><path class="cls-9" d="M282.21,368.83c1.11,1.1,1.84,2.37,2.16,3.81.33,1.44.24,2.96-.27,4.54-.41,1.28-1.01,2.4-1.81,3.36-.8.96-1.73,1.63-2.81,2.01-1.08.38-2.21.38-3.41,0-.8-.26-1.41-.62-1.83-1.11-.42-.48-.63-1.04-.63-1.67-.61.45-1.3.74-2.07.85-.77.11-1.54.04-2.33-.21-1.12-.36-1.89-.97-2.32-1.85-.43-.88-.45-1.9-.08-3.06.35-1.1.91-2.07,1.67-2.9s1.64-1.41,2.63-1.74c.99-.33,1.98-.34,2.98-.02,1.27.4,1.98,1.13,2.15,2.18l.59-1.14,3.13,1-2.81,5.37c-.13.26-.23.49-.3.7-.21.66-.02,1.09.57,1.28.72.23,1.43-.06,2.11-.86.68-.81,1.21-1.81,1.6-3.02.55-1.74.44-3.27-.34-4.6-.78-1.33-2.16-2.31-4.14-2.94-1.69-.54-3.36-.62-5-.25-1.64.37-3.08,1.14-4.32,2.3-1.24,1.16-2.12,2.59-2.66,4.28-.58,1.83-.5,3.42.24,4.77s2.07,2.33,3.99,2.94c1.49.48,2.92.63,4.27.46l-.18,2.66c-1.69.18-3.45-.03-5.29-.62-1.72-.55-3.13-1.37-4.22-2.45-1.09-1.08-1.8-2.35-2.12-3.8-.32-1.45-.22-2.99.3-4.62.73-2.28,1.92-4.17,3.59-5.68,1.66-1.51,3.6-2.48,5.81-2.93,2.21-.45,4.48-.3,6.81.44,1.78.57,3.23,1.4,4.34,2.5ZM272.7,378.03c.45-.14.86-.39,1.21-.75.36-.36.61-.79.77-1.29s.15-.98-.03-1.39c-.18-.42-.52-.7-1.02-.86-.66-.21-1.31-.1-1.93.33-.62.43-1.06,1.04-1.31,1.83-.16.5-.16.94,0,1.32.16.38.49.66.99.81.42.13.86.13,1.31,0Z"/><rect class="cls-8" x="240.53" y="423.15" width="51.11" height="30.3" rx="4.91" ry="4.91" transform="translate(-110.37 90.18) rotate(-15.98)"/><polygon class="cls-1" points="266.24 438.44 265.93 438.15 285.89 417.34 286.2 417.64 266.24 438.44"/><polygon class="cls-1" points="266.03 438.37 238.08 431.28 238.19 430.87 266.13 437.96 266.03 438.37"/><polygon class="cls-1" points="294.11 445.33 268.29 436.29 268.43 435.89 294.25 444.92 294.11 445.33"/><polygon class="cls-1" points="245.57 458.62 245.23 458.35 262.36 437.02 262.69 437.29 245.57 458.62"/><rect class="cls-9" x="18.07" y="413.39" width="70.09" height="41.82" rx="4.91" ry="4.91" transform="translate(150.86 7.82) rotate(19.88)"/><rect class="cls-1" x="52.78" y="430.39" width="39.6" height=".59" transform="translate(-77.39 20.48) rotate(-10.52)"/><rect class="cls-1" x="40.26" y="399.12" width=".59" height="39.6" transform="translate(-258.45 122.71) rotate(-39.74)"/><rect class="cls-1" x="67.81" y="430.32" width=".59" height="37.59" transform="translate(-243.47 118.57) rotate(-34.69)"/><rect class="cls-1" x="13.17" y="434.89" width="37.59" height=".59" transform="translate(-115.7 24.57) rotate(-15.58)"/></g></svg>