<svg width="574" height="294" viewBox="0 0 574 294" fill="none" xmlns="http://www.w3.org/2000/svg">
<path d="M251.16 80.4855C280.287 144.301 251.199 220.087 187.384 249.213C133.758 273.689 69.6322 250.429 45.1564 196.803L40.67 186.974C18.2087 137.762 39.8945 79.659 89.1066 57.1977L133.939 36.7351C178.39 16.4469 230.872 36.0346 251.16 80.4855Z" fill="#FFA200"/>
<path d="M240.728 154L235.8 145.296H233.688V154H229.208V131.664H237.592C239.32 131.664 240.792 131.973 242.008 132.592C243.224 133.189 244.131 134.011 244.728 135.056C245.347 136.08 245.656 137.232 245.656 138.512C245.656 139.984 245.229 141.317 244.376 142.512C243.523 143.685 242.253 144.496 240.568 144.944L245.912 154H240.728ZM233.688 141.936H237.432C238.648 141.936 239.555 141.648 240.152 141.072C240.749 140.475 241.048 139.653 241.048 138.608C241.048 137.584 240.749 136.795 240.152 136.24C239.555 135.664 238.648 135.376 237.432 135.376H233.688V141.936ZM266.668 136.272L255.692 162.384H250.924L254.764 153.552L247.66 136.272H252.684L257.26 148.656L261.9 136.272H266.668ZM267.931 145.072C267.931 143.28 268.283 141.691 268.987 140.304C269.712 138.917 270.694 137.851 271.931 137.104C273.168 136.357 274.544 135.984 276.059 135.984C277.211 135.984 278.31 136.24 279.355 136.752C280.4 137.243 281.232 137.904 281.851 138.736V130.32H286.395V154H281.851V151.376C281.296 152.251 280.518 152.955 279.515 153.488C278.512 154.021 277.35 154.288 276.027 154.288C274.534 154.288 273.168 153.904 271.931 153.136C270.694 152.368 269.712 151.291 268.987 149.904C268.283 148.496 267.931 146.885 267.931 145.072ZM281.883 145.136C281.883 144.048 281.67 143.12 281.243 142.352C280.816 141.563 280.24 140.965 279.515 140.56C278.79 140.133 278.011 139.92 277.179 139.92C276.347 139.92 275.579 140.123 274.875 140.528C274.171 140.933 273.595 141.531 273.147 142.32C272.72 143.088 272.507 144.005 272.507 145.072C272.507 146.139 272.72 147.077 273.147 147.888C273.595 148.677 274.171 149.285 274.875 149.712C275.6 150.139 276.368 150.352 277.179 150.352C278.011 150.352 278.79 150.149 279.515 149.744C280.24 149.317 280.816 148.72 281.243 147.952C281.67 147.163 281.883 146.224 281.883 145.136ZM306.268 154.288C304.561 154.288 303.025 153.915 301.66 153.168C300.294 152.4 299.217 151.323 298.428 149.936C297.66 148.549 297.276 146.949 297.276 145.136C297.276 143.323 297.67 141.723 298.46 140.336C299.27 138.949 300.369 137.883 301.756 137.136C303.142 136.368 304.689 135.984 306.396 135.984C308.102 135.984 309.649 136.368 311.036 137.136C312.422 137.883 313.51 138.949 314.3 140.336C315.11 141.723 315.516 143.323 315.516 145.136C315.516 146.949 315.1 148.549 314.267 149.936C313.457 151.323 312.348 152.4 310.94 153.168C309.553 153.915 307.996 154.288 306.268 154.288ZM306.268 150.384C307.078 150.384 307.836 150.192 308.54 149.808C309.265 149.403 309.841 148.805 310.268 148.016C310.694 147.227 310.908 146.267 310.908 145.136C310.908 143.451 310.46 142.16 309.564 141.264C308.689 140.347 307.612 139.888 306.332 139.888C305.052 139.888 303.974 140.347 303.1 141.264C302.246 142.16 301.82 143.451 301.82 145.136C301.82 146.821 302.236 148.123 303.068 149.04C303.921 149.936 304.988 150.384 306.268 150.384ZM323.282 138.832C323.858 138.021 324.647 137.349 325.65 136.816C326.674 136.261 327.836 135.984 329.138 135.984C330.652 135.984 332.018 136.357 333.234 137.104C334.471 137.851 335.442 138.917 336.146 140.304C336.871 141.669 337.234 143.259 337.234 145.072C337.234 146.885 336.871 148.496 336.146 149.904C335.442 151.291 334.471 152.368 333.234 153.136C332.018 153.904 330.652 154.288 329.138 154.288C327.836 154.288 326.684 154.021 325.682 153.488C324.7 152.955 323.9 152.283 323.282 151.472V162.448H318.802V136.272H323.282V138.832ZM332.658 145.072C332.658 144.005 332.434 143.088 331.986 142.32C331.559 141.531 330.983 140.933 330.258 140.528C329.554 140.123 328.786 139.92 327.954 139.92C327.143 139.92 326.375 140.133 325.65 140.56C324.946 140.965 324.37 141.563 323.922 142.352C323.495 143.141 323.282 144.069 323.282 145.136C323.282 146.203 323.495 147.131 323.922 147.92C324.37 148.709 324.946 149.317 325.65 149.744C326.375 150.149 327.143 150.352 327.954 150.352C328.786 150.352 329.554 150.139 330.258 149.712C330.983 149.285 331.559 148.677 331.986 147.888C332.434 147.099 332.658 146.16 332.658 145.072ZM350.386 134.16C349.597 134.16 348.936 133.915 348.402 133.424C347.89 132.912 347.634 132.283 347.634 131.536C347.634 130.789 347.89 130.171 348.402 129.68C348.936 129.168 349.597 128.912 350.386 128.912C351.176 128.912 351.826 129.168 352.338 129.68C352.872 130.171 353.138 130.789 353.138 131.536C353.138 132.283 352.872 132.912 352.338 133.424C351.826 133.915 351.176 134.16 350.386 134.16ZM352.594 136.272V154H348.114V136.272H352.594ZM363.493 145.072C363.493 143.28 363.845 141.691 364.549 140.304C365.275 138.917 366.256 137.851 367.494 137.104C368.731 136.357 370.107 135.984 371.622 135.984C372.774 135.984 373.872 136.24 374.918 136.752C375.963 137.243 376.795 137.904 377.414 138.736V130.32H381.958V154H377.414V151.376C376.859 152.251 376.08 152.955 375.078 153.488C374.075 154.021 372.912 154.288 371.59 154.288C370.096 154.288 368.731 153.904 367.494 153.136C366.256 152.368 365.275 151.291 364.549 149.904C363.845 148.496 363.493 146.885 363.493 145.072ZM377.446 145.136C377.446 144.048 377.232 143.12 376.806 142.352C376.379 141.563 375.803 140.965 375.078 140.56C374.352 140.133 373.574 139.92 372.742 139.92C371.91 139.92 371.142 140.123 370.438 140.528C369.734 140.933 369.158 141.531 368.71 142.32C368.283 143.088 368.07 144.005 368.07 145.072C368.07 146.139 368.283 147.077 368.71 147.888C369.158 148.677 369.734 149.285 370.438 149.712C371.163 150.139 371.931 150.352 372.742 150.352C373.574 150.352 374.352 150.149 375.078 149.744C375.803 149.317 376.379 148.72 376.806 147.952C377.232 147.163 377.446 146.224 377.446 145.136ZM388.605 134.16C387.816 134.16 387.154 133.915 386.621 133.424C386.109 132.912 385.853 132.283 385.853 131.536C385.853 130.789 386.109 130.171 386.621 129.68C387.154 129.168 387.816 128.912 388.605 128.912C389.394 128.912 390.045 129.168 390.557 129.68C391.09 130.171 391.357 130.789 391.357 131.536C391.357 132.283 391.09 132.912 390.557 133.424C390.045 133.915 389.394 134.16 388.605 134.16ZM390.813 136.272V154H386.333V136.272H390.813ZM405.063 136.016C407.175 136.016 408.882 136.688 410.183 138.032C411.485 139.355 412.135 141.211 412.135 143.6V154H407.655V144.208C407.655 142.8 407.303 141.723 406.599 140.976C405.895 140.208 404.935 139.824 403.719 139.824C402.482 139.824 401.501 140.208 400.775 140.976C400.071 141.723 399.719 142.8 399.719 144.208V154H395.239V136.272H399.719V138.48C400.317 137.712 401.074 137.115 401.991 136.688C402.93 136.24 403.954 136.016 405.063 136.016ZM446.037 136.016C448.213 136.016 449.962 136.688 451.285 138.032C452.629 139.355 453.301 141.211 453.301 143.6V154H448.821V144.208C448.821 142.821 448.469 141.765 447.765 141.04C447.061 140.293 446.101 139.92 444.885 139.92C443.669 139.92 442.698 140.293 441.973 141.04C441.269 141.765 440.917 142.821 440.917 144.208V154H436.437V144.208C436.437 142.821 436.085 141.765 435.381 141.04C434.677 140.293 433.717 139.92 432.501 139.92C431.263 139.92 430.282 140.293 429.557 141.04C428.853 141.765 428.501 142.821 428.501 144.208V154H424.021V136.272H428.501V138.416C429.077 137.669 429.813 137.083 430.709 136.656C431.626 136.229 432.629 136.016 433.717 136.016C435.103 136.016 436.341 136.315 437.429 136.912C438.517 137.488 439.359 138.32 439.957 139.408C440.533 138.384 441.365 137.563 442.453 136.944C443.562 136.325 444.757 136.016 446.037 136.016ZM456.4 145.072C456.4 143.28 456.752 141.691 457.456 140.304C458.181 138.917 459.152 137.851 460.368 137.104C461.605 136.357 462.981 135.984 464.496 135.984C465.818 135.984 466.97 136.251 467.952 136.784C468.954 137.317 469.754 137.989 470.352 138.8V136.272H474.864V154H470.352V151.408C469.776 152.24 468.976 152.933 467.952 153.488C466.949 154.021 465.786 154.288 464.464 154.288C462.97 154.288 461.605 153.904 460.368 153.136C459.152 152.368 458.181 151.291 457.456 149.904C456.752 148.496 456.4 146.885 456.4 145.072ZM470.352 145.136C470.352 144.048 470.138 143.12 469.712 142.352C469.285 141.563 468.709 140.965 467.984 140.56C467.258 140.133 466.48 139.92 465.648 139.92C464.816 139.92 464.048 140.123 463.344 140.528C462.64 140.933 462.064 141.531 461.616 142.32C461.189 143.088 460.976 144.005 460.976 145.072C460.976 146.139 461.189 147.077 461.616 147.888C462.064 148.677 462.64 149.285 463.344 149.712C464.069 150.139 464.837 150.352 465.648 150.352C466.48 150.352 467.258 150.149 467.984 149.744C468.709 149.317 469.285 148.72 469.712 147.952C470.138 147.163 470.352 146.224 470.352 145.136ZM481.511 134.16C480.722 134.16 480.061 133.915 479.527 133.424C479.015 132.912 478.759 132.283 478.759 131.536C478.759 130.789 479.015 130.171 479.527 129.68C480.061 129.168 480.722 128.912 481.511 128.912C482.301 128.912 482.951 129.168 483.463 129.68C483.997 130.171 484.263 130.789 484.263 131.536C484.263 132.283 483.997 132.912 483.463 133.424C482.951 133.915 482.301 134.16 481.511 134.16ZM483.719 136.272V154H479.239V136.272H483.719ZM492.626 130.32V154H488.146V130.32H492.626ZM501.532 138.864C502.108 138.011 502.897 137.317 503.9 136.784C504.924 136.251 506.086 135.984 507.388 135.984C508.902 135.984 510.268 136.357 511.484 137.104C512.721 137.851 513.692 138.917 514.396 140.304C515.121 141.669 515.484 143.259 515.484 145.072C515.484 146.885 515.121 148.496 514.396 149.904C513.692 151.291 512.721 152.368 511.484 153.136C510.268 153.904 508.902 154.288 507.388 154.288C506.065 154.288 504.902 154.032 503.9 153.52C502.918 152.987 502.129 152.304 501.532 151.472V154H497.052V130.32H501.532V138.864ZM510.908 145.072C510.908 144.005 510.684 143.088 510.236 142.32C509.809 141.531 509.233 140.933 508.508 140.528C507.804 140.123 507.036 139.92 506.204 139.92C505.393 139.92 504.625 140.133 503.9 140.56C503.196 140.965 502.62 141.563 502.172 142.352C501.745 143.141 501.532 144.069 501.532 145.136C501.532 146.203 501.745 147.131 502.172 147.92C502.62 148.709 503.196 149.317 503.9 149.744C504.625 150.149 505.393 150.352 506.204 150.352C507.036 150.352 507.804 150.139 508.508 149.712C509.233 149.285 509.809 148.677 510.236 147.888C510.684 147.099 510.908 146.16 510.908 145.072ZM526.611 154.288C524.905 154.288 523.369 153.915 522.003 153.168C520.638 152.4 519.561 151.323 518.771 149.936C518.003 148.549 517.619 146.949 517.619 145.136C517.619 143.323 518.014 141.723 518.803 140.336C519.614 138.949 520.713 137.883 522.099 137.136C523.486 136.368 525.033 135.984 526.739 135.984C528.446 135.984 529.993 136.368 531.379 137.136C532.766 137.883 533.854 138.949 534.643 140.336C535.454 141.723 535.859 143.323 535.859 145.136C535.859 146.949 535.443 148.549 534.611 149.936C533.801 151.323 532.691 152.4 531.283 153.168C529.897 153.915 528.339 154.288 526.611 154.288ZM526.611 150.384C527.422 150.384 528.179 150.192 528.883 149.808C529.609 149.403 530.185 148.805 530.611 148.016C531.038 147.227 531.251 146.267 531.251 145.136C531.251 143.451 530.803 142.16 529.907 141.264C529.033 140.347 527.955 139.888 526.675 139.888C525.395 139.888 524.318 140.347 523.443 141.264C522.59 142.16 522.163 143.451 522.163 145.136C522.163 146.821 522.579 148.123 523.411 149.04C524.265 149.936 525.331 150.384 526.611 150.384ZM549.642 154L543.626 146.448V154H539.146V130.32H543.626V143.792L549.578 136.272H555.402L547.594 145.168L555.466 154H549.642ZM564.617 154.288C563.166 154.288 561.865 154.032 560.713 153.52C559.561 152.987 558.644 152.272 557.961 151.376C557.3 150.48 556.937 149.488 556.873 148.4H561.385C561.47 149.083 561.801 149.648 562.377 150.096C562.974 150.544 563.71 150.768 564.585 150.768C565.438 150.768 566.1 150.597 566.569 150.256C567.06 149.915 567.305 149.477 567.305 148.944C567.305 148.368 567.006 147.941 566.409 147.664C565.833 147.365 564.905 147.045 563.625 146.704C562.302 146.384 561.214 146.053 560.361 145.712C559.529 145.371 558.804 144.848 558.185 144.144C557.588 143.44 557.289 142.491 557.289 141.296C557.289 140.315 557.566 139.419 558.121 138.608C558.697 137.797 559.508 137.157 560.553 136.688C561.62 136.219 562.868 135.984 564.297 135.984C566.409 135.984 568.094 136.517 569.353 137.584C570.612 138.629 571.305 140.048 571.433 141.84H567.145C567.081 141.136 566.782 140.581 566.249 140.176C565.737 139.749 565.044 139.536 564.169 139.536C563.358 139.536 562.729 139.685 562.281 139.984C561.854 140.283 561.641 140.699 561.641 141.232C561.641 141.829 561.94 142.288 562.537 142.608C563.134 142.907 564.062 143.216 565.321 143.536C566.601 143.856 567.657 144.187 568.489 144.528C569.321 144.869 570.036 145.403 570.633 146.128C571.252 146.832 571.572 147.771 571.593 148.944C571.593 149.968 571.305 150.885 570.729 151.696C570.174 152.507 569.364 153.147 568.297 153.616C567.252 154.064 566.025 154.288 564.617 154.288Z" fill="black"/>
<path d="M107.92 153.224C106.362 153.224 104.954 152.957 103.696 152.424C102.458 151.891 101.477 151.123 100.752 150.12C100.026 149.117 99.6528 147.933 99.6315 146.568H104.432C104.496 147.485 104.816 148.211 105.392 148.744C105.989 149.277 106.8 149.544 107.824 149.544C108.869 149.544 109.69 149.299 110.288 148.808C110.885 148.296 111.184 147.635 111.184 146.824C111.184 146.163 110.981 145.619 110.576 145.192C110.17 144.765 109.658 144.435 109.04 144.2C108.442 143.944 107.61 143.667 106.544 143.368C105.093 142.941 103.909 142.525 102.992 142.12C102.096 141.693 101.317 141.064 100.656 140.232C100.016 139.379 99.6955 138.248 99.6955 136.84C99.6955 135.517 100.026 134.365 100.688 133.384C101.349 132.403 102.277 131.656 103.472 131.144C104.666 130.611 106.032 130.344 107.568 130.344C109.872 130.344 111.738 130.909 113.168 132.04C114.618 133.149 115.418 134.707 115.568 136.712H110.64C110.597 135.944 110.266 135.315 109.648 134.824C109.05 134.312 108.25 134.056 107.248 134.056C106.373 134.056 105.669 134.28 105.136 134.728C104.624 135.176 104.368 135.827 104.368 136.68C104.368 137.277 104.56 137.779 104.944 138.184C105.349 138.568 105.84 138.888 106.416 139.144C107.013 139.379 107.845 139.656 108.912 139.976C110.362 140.403 111.546 140.829 112.464 141.256C113.381 141.683 114.17 142.323 114.832 143.176C115.493 144.029 115.824 145.149 115.824 146.536C115.824 147.731 115.514 148.84 114.896 149.864C114.277 150.888 113.37 151.709 112.176 152.328C110.981 152.925 109.562 153.224 107.92 153.224ZM124.924 138.952V147.528C124.924 148.125 125.062 148.563 125.34 148.84C125.638 149.096 126.129 149.224 126.812 149.224H128.892V153H126.076C122.3 153 120.412 151.165 120.412 147.496V138.952H118.3V135.272H120.412V130.888H124.924V135.272H128.892V138.952H124.924ZM148.594 143.752C148.594 144.392 148.551 144.968 148.466 145.48H135.506C135.612 146.76 136.06 147.763 136.85 148.488C137.639 149.213 138.61 149.576 139.762 149.576C141.426 149.576 142.61 148.861 143.314 147.432H148.146C147.634 149.139 146.652 150.547 145.202 151.656C143.751 152.744 141.97 153.288 139.858 153.288C138.151 153.288 136.615 152.915 135.25 152.168C133.906 151.4 132.85 150.323 132.082 148.936C131.335 147.549 130.962 145.949 130.962 144.136C130.962 142.301 131.335 140.691 132.082 139.304C132.828 137.917 133.874 136.851 135.218 136.104C136.562 135.357 138.108 134.984 139.858 134.984C141.543 134.984 143.047 135.347 144.37 136.072C145.714 136.797 146.748 137.832 147.474 139.176C148.22 140.499 148.594 142.024 148.594 143.752ZM143.954 142.472C143.932 141.32 143.516 140.403 142.706 139.72C141.895 139.016 140.903 138.664 139.73 138.664C138.62 138.664 137.682 139.005 136.914 139.688C136.167 140.349 135.708 141.277 135.538 142.472H143.954ZM156.344 137.832C156.92 137.021 157.709 136.349 158.712 135.816C159.736 135.261 160.898 134.984 162.2 134.984C163.714 134.984 165.08 135.357 166.296 136.104C167.533 136.851 168.504 137.917 169.208 139.304C169.933 140.669 170.296 142.259 170.296 144.072C170.296 145.885 169.933 147.496 169.208 148.904C168.504 150.291 167.533 151.368 166.296 152.136C165.08 152.904 163.714 153.288 162.2 153.288C160.898 153.288 159.746 153.021 158.744 152.488C157.762 151.955 156.962 151.283 156.344 150.472V161.448H151.864V135.272H156.344V137.832ZM165.72 144.072C165.72 143.005 165.496 142.088 165.048 141.32C164.621 140.531 164.045 139.933 163.32 139.528C162.616 139.123 161.848 138.92 161.016 138.92C160.205 138.92 159.437 139.133 158.712 139.56C158.008 139.965 157.432 140.563 156.984 141.352C156.557 142.141 156.344 143.069 156.344 144.136C156.344 145.203 156.557 146.131 156.984 146.92C157.432 147.709 158.008 148.317 158.712 148.744C159.437 149.149 160.205 149.352 161.016 149.352C161.848 149.352 162.616 149.139 163.32 148.712C164.045 148.285 164.621 147.677 165.048 146.888C165.496 146.099 165.72 145.16 165.72 144.072ZM180.728 135.816C180.835 133.683 181.582 132.04 182.968 130.888C184.376 129.715 186.222 129.128 188.504 129.128C190.062 129.128 191.395 129.405 192.504 129.96C193.614 130.493 194.446 131.229 195 132.168C195.576 133.085 195.864 134.131 195.864 135.304C195.864 136.648 195.512 137.789 194.808 138.728C194.126 139.645 193.304 140.264 192.344 140.584V140.712C193.582 141.096 194.542 141.779 195.224 142.76C195.928 143.741 196.28 145 196.28 146.536C196.28 147.816 195.982 148.957 195.384 149.96C194.808 150.963 193.944 151.752 192.792 152.328C191.662 152.883 190.296 153.16 188.696 153.16C186.286 153.16 184.323 152.552 182.808 151.336C181.294 150.12 180.494 148.328 180.408 145.96H184.76C184.803 147.005 185.155 147.848 185.816 148.488C186.499 149.107 187.427 149.416 188.6 149.416C189.688 149.416 190.52 149.117 191.096 148.52C191.694 147.901 191.992 147.112 191.992 146.152C191.992 144.872 191.587 143.955 190.776 143.4C189.966 142.845 188.707 142.568 187 142.568H186.072V138.888H187C190.03 138.888 191.544 137.875 191.544 135.848C191.544 134.931 191.267 134.216 190.712 133.704C190.179 133.192 189.4 132.936 188.376 132.936C187.374 132.936 186.595 133.213 186.04 133.768C185.507 134.301 185.198 134.984 185.112 135.816H180.728ZM202.317 153.224C201.506 153.224 200.834 152.979 200.301 152.488C199.789 151.976 199.533 151.347 199.533 150.6C199.533 149.853 199.789 149.235 200.301 148.744C200.834 148.232 201.506 147.976 202.317 147.976C203.106 147.976 203.757 148.232 204.269 148.744C204.781 149.235 205.037 149.853 205.037 150.6C205.037 151.347 204.781 151.976 204.269 152.488C203.757 152.979 203.106 153.224 202.317 153.224ZM202.317 139.976C201.506 139.976 200.834 139.731 200.301 139.24C199.789 138.728 199.533 138.099 199.533 137.352C199.533 136.605 199.789 135.987 200.301 135.496C200.834 134.984 201.506 134.728 202.317 134.728C203.106 134.728 203.757 134.984 204.269 135.496C204.781 135.987 205.037 136.605 205.037 137.352C205.037 138.099 204.781 138.728 204.269 139.24C203.757 139.731 203.106 139.976 202.317 139.976Z" fill="white"/>
</svg>
